<svg width="187" height="64" viewBox="0 0 187 64" fill="none" xmlns="http://www.w3.org/2000/svg">
<g filter="url(#filter1_d_2394_3020)">
<rect x="2" width="183" height="60" rx="8" fill="#ABFC3A"/>
</g>
<g filter="url(#filter2_d_2394_3020)">
<path d="M123.89 0H177C181.418 0 185 3.58172 185 8V52C185 56.4183 181.418 60 177 60H102L123.89 0Z" fill="url(#paint0_linear_2394_3020)"/>
</g>
<g filter="url(#filter3_d_2394_3020)">
<path d="M123.89 0H177C181.418 0 185 3.58172 185 8V52C185 56.4183 181.418 60 177 60H102L123.89 0Z" fill="url(#paint1_linear_2394_3020)"/>
</g>
<g clip-path="url(#clip0_2394_3020)">
<path d="M129 29.744C129.112 29.712 129.096 29.616 129.112 29.536C129.562 28.288 130.525 27.616 131.858 27.616C134.635 27.616 137.429 27.616 140.206 27.616C140.527 27.616 140.624 27.552 140.64 27.2C140.672 22.288 144.461 17.872 149.341 17.12C152.729 16.592 155.683 17.504 158.22 19.824C158.653 20.208 158.669 20.416 158.38 20.912C157.979 21.2 157.658 21.072 157.321 20.752C155.94 19.456 154.318 18.64 152.424 18.384C151.541 18.192 150.658 18.192 149.775 18.352C146.323 18.944 143.851 20.848 142.566 24.096C141.282 27.328 141.812 30.416 144.011 33.104C145.858 35.344 147.11 37.792 147.335 40.704C147.335 40.88 147.415 40.928 147.575 40.928C148.089 40.928 148.603 40.928 149.133 40.928C149.085 40.72 149.069 40.56 149.02 40.384C148.651 38.672 148.282 36.96 147.913 35.232C147.8 34.688 148.234 34.256 148.731 34.432C149.069 34.544 149.149 34.832 149.213 35.136C149.598 36.928 149.984 38.704 150.353 40.496C150.417 40.8 150.497 40.96 150.867 40.944C151.621 40.912 151.621 40.944 151.798 40.176C151.798 40.128 151.798 40.096 151.814 40.048C152.183 38.352 152.552 36.64 152.922 34.944C153.018 34.544 153.323 34.336 153.676 34.416C154.046 34.496 154.254 34.816 154.174 35.232C154.126 35.52 154.062 35.824 153.997 36.112C153.676 37.616 153.339 39.12 153.002 40.624C152.954 40.864 152.986 40.944 153.243 40.928C153.628 40.912 154.013 40.912 154.399 40.928C154.623 40.928 154.72 40.896 154.736 40.64C154.929 37.984 155.892 35.632 157.658 33.6C160.371 30.48 160.869 27.04 159.167 23.296C158.974 22.88 159.006 22.56 159.376 22.288C159.873 22.16 160.082 22.256 160.323 22.704C161.045 24.128 161.399 25.648 161.431 27.248C161.431 27.568 161.495 27.648 161.832 27.648C164.577 27.648 167.307 27.648 170.052 27.648C171.963 27.648 173.087 28.768 173.087 30.656C173.087 34.432 173.087 38.208 173.087 41.984C173.087 43.824 171.947 44.96 170.116 44.96C165.573 44.96 161.013 44.96 156.47 44.96C156.101 44.96 156.004 45.04 155.972 45.408C155.715 48.112 153.612 50.064 150.995 50.048C148.266 50.032 146.13 47.856 146.066 45.024C146.066 44.784 146.066 44.544 146.05 44.304C146.05 43.568 146.05 42.816 146.082 42.08C146.163 39.056 145.135 36.448 143.176 34.192C141.94 32.768 141.153 31.12 140.816 29.264C140.768 29.008 140.672 28.944 140.431 28.944C137.557 28.944 134.683 28.944 131.826 28.944C130.911 28.944 130.316 29.552 130.316 30.448C130.316 34.352 130.316 38.256 130.316 42.16C130.316 42.496 130.413 42.816 130.622 43.088C130.975 43.552 131.472 43.664 132.034 43.664C135.855 43.664 139.676 43.664 143.481 43.664C144.092 43.664 144.236 43.76 144.381 44.304C144.252 44.8 144.092 44.96 143.578 44.96C139.66 44.96 135.743 44.96 131.826 44.96C130.525 44.96 129.61 44.272 129.144 43.056C129.112 42.976 129.144 42.88 129.016 42.848V29.792L129 29.744ZM148.555 47.632C148.555 47.632 148.523 47.632 148.491 47.632C148.507 47.632 148.523 47.648 148.539 47.664C149.181 48.368 150.016 48.656 150.947 48.672C151.942 48.736 153.243 48.208 153.516 47.616H151.798C150.706 47.616 149.63 47.616 148.539 47.616L148.555 47.632ZM152.601 46.304C153.114 46.304 153.628 46.304 154.142 46.32C154.318 46.32 154.495 46.352 154.543 46.128C154.623 45.744 154.768 45.36 154.64 44.96C154.64 44.912 154.479 44.912 154.399 44.912C153.853 44.912 153.307 44.912 152.761 44.912C151.284 44.912 149.807 44.912 148.346 44.896C147.27 44.896 147.19 45.008 147.511 46.048C147.575 46.24 147.656 46.32 147.864 46.32C149.438 46.32 151.011 46.32 152.585 46.304H152.601ZM152.777 42.208C151.075 42.208 149.374 42.208 147.672 42.192C147.447 42.192 147.319 42.272 147.399 42.48C147.511 42.848 147.094 43.328 147.64 43.6C147.64 43.6 147.672 43.6 147.688 43.6C149.39 43.6 151.091 43.6 152.793 43.568C153.082 43.648 153.387 43.6 153.692 43.6C154.832 43.6 154.832 43.6 154.784 42.464C154.784 42.24 154.704 42.16 154.479 42.176C153.917 42.176 153.371 42.176 152.809 42.192L152.777 42.208ZM169.314 28.912C166.745 28.912 164.176 28.912 161.607 28.896C161.415 28.896 161.334 28.96 161.302 29.152C160.949 31.216 160.002 32.976 158.605 34.512C157.594 35.632 156.935 36.944 156.47 38.384C155.972 39.936 156.02 41.536 156.02 43.136C156.02 43.504 156.084 43.616 156.486 43.616C160.644 43.616 164.802 43.616 168.976 43.616C169.121 43.616 169.265 43.6 169.41 43.584C169.779 43.648 170.148 43.632 170.518 43.584C171.304 43.488 171.818 42.928 171.818 42.144C171.818 38.224 171.818 34.288 171.818 30.368C171.818 29.536 171.224 28.928 170.405 28.896C170.052 28.88 169.683 28.896 169.33 28.896L169.314 28.912Z" fill="#040403"/>
<path d="M144.348 44.256C144.204 43.712 144.075 43.616 143.449 43.616C139.628 43.616 135.807 43.616 132.002 43.616C131.44 43.616 130.943 43.504 130.589 43.04C130.381 42.768 130.284 42.464 130.284 42.112C130.284 38.208 130.284 34.304 130.284 30.4C130.284 29.504 130.894 28.896 131.794 28.896C134.667 28.896 137.541 28.896 140.399 28.896C140.64 28.896 140.736 28.944 140.784 29.216C141.121 31.072 141.908 32.72 143.144 34.144C145.103 36.416 146.13 39.024 146.05 42.032C146.034 42.768 146.034 43.52 146.018 44.256C145.456 44.256 144.878 44.256 144.316 44.256H144.348ZM133.688 34.624C133.094 34.656 132.5 35.008 132.195 35.712C131.89 36.416 132.002 37.088 132.532 37.664C133.126 38.288 133.736 38.88 134.346 39.488C135.197 40.32 136.241 40.32 137.092 39.488C138.28 38.304 139.468 37.12 140.656 35.936C141.442 35.152 141.475 34.032 140.736 33.296C139.998 32.56 138.906 32.592 138.087 33.392C137.461 34.016 136.835 34.64 136.193 35.264C135.711 35.744 135.711 35.744 135.245 35.264C134.86 34.864 134.41 34.624 133.672 34.624H133.688Z" fill="#B9EA6B"/>
<path d="M152.424 18.384C154.318 18.624 155.94 19.456 157.321 20.752C157.658 21.072 157.979 21.184 158.38 20.912C158.766 21.328 159.087 21.808 159.408 22.272C159.039 22.544 159.006 22.864 159.199 23.28C160.901 27.04 160.403 30.48 157.69 33.584C155.924 35.6 154.961 37.952 154.768 40.624C154.752 40.88 154.656 40.928 154.431 40.912C154.045 40.912 153.66 40.896 153.275 40.912C153.002 40.912 152.97 40.848 153.034 40.608C153.371 39.104 153.692 37.6 154.029 36.096C154.351 36.016 154.367 35.696 154.495 35.472C154.993 34.704 155.635 34.048 156.197 33.328C157.85 31.152 158.525 28.688 158.139 25.968C157.706 22.992 156.165 20.704 153.628 19.072C153.243 18.832 152.777 18.72 152.456 18.384H152.424Z" fill="#FBE159"/>
<path d="M160.596 12.6719C160.564 12.7679 160.532 12.8799 160.484 12.9919C160.227 13.4719 159.986 13.9519 159.713 14.4159C159.488 14.8159 159.119 14.9279 158.782 14.7359C158.445 14.5439 158.364 14.2079 158.573 13.8079C158.83 13.3119 159.103 12.7999 159.392 12.3199C159.552 12.0479 159.809 11.9359 160.13 12.0319C160.419 12.1279 160.564 12.3359 160.612 12.6719H160.596Z" fill="#050504"/>
<path d="M143.642 14.0479C143.642 14.4479 143.514 14.6559 143.241 14.7679C142.968 14.8799 142.679 14.8479 142.502 14.5919C142.133 14.0159 141.796 13.4239 141.523 12.7999C141.41 12.5279 141.523 12.3039 141.764 12.1279C142.004 11.9359 142.309 11.9039 142.502 12.1279C143.016 12.7199 143.305 13.4559 143.626 14.0479H143.642Z" fill="#050504"/>
<path d="M136.209 22.208C136.209 22.672 135.775 23.008 135.342 22.832C134.764 22.608 134.218 22.368 133.656 22.096C133.319 21.936 133.206 21.584 133.351 21.264C133.495 20.944 133.833 20.784 134.17 20.928C134.732 21.152 135.261 21.408 135.807 21.648C136.064 21.76 136.16 21.968 136.193 22.192L136.209 22.208Z" fill="#050504"/>
<path d="M166.649 22.88C166.263 22.864 166.055 22.736 165.942 22.448C165.83 22.128 165.91 21.856 166.199 21.712C166.777 21.424 167.387 21.152 167.997 20.928C168.286 20.816 168.559 20.944 168.72 21.232C168.864 21.504 168.864 21.808 168.623 21.968C167.997 22.4 167.275 22.608 166.649 22.896V22.88Z" fill="#050504"/>
<path d="M139.243 17.7119C139.243 17.8399 139.131 18.0319 138.906 18.1599C138.665 18.2879 138.424 18.2719 138.232 18.1119C137.766 17.6959 137.3 17.2799 136.851 16.8319C136.594 16.5759 136.594 16.2559 136.851 15.9839C137.092 15.7119 137.413 15.6479 137.686 15.8879C138.183 16.2879 138.633 16.7519 139.098 17.1839C139.211 17.2959 139.259 17.4399 139.259 17.7279L139.243 17.7119Z" fill="#050504"/>
<path d="M147.335 10.7359C147.335 10.3039 147.527 10.0639 147.864 10.0159C148.218 9.95189 148.507 10.1279 148.571 10.4799C148.699 11.1039 148.812 11.7439 148.876 12.3679C148.924 12.7039 148.715 12.9439 148.378 13.0079C148.025 13.0719 147.768 12.9279 147.64 12.5759C147.608 12.5119 147.608 12.4319 147.591 12.3679C147.495 11.8079 147.399 11.2479 147.319 10.7519L147.335 10.7359Z" fill="#050504"/>
<path d="M153.211 12.256C153.307 11.712 153.387 11.12 153.5 10.528C153.564 10.176 153.901 9.95202 154.222 10.016C154.559 10.064 154.8 10.352 154.752 10.72C154.672 11.328 154.575 11.936 154.463 12.528C154.383 12.896 154.078 13.072 153.724 13.024C153.387 12.976 153.195 12.688 153.211 12.272V12.256Z" fill="#050504"/>
<path d="M163.55 18.24C163.245 18.24 163.052 18.112 162.924 17.872C162.795 17.632 162.811 17.376 163.004 17.2C163.47 16.736 163.951 16.288 164.449 15.872C164.706 15.648 165.027 15.712 165.268 15.952C165.493 16.176 165.557 16.496 165.348 16.736C164.883 17.264 164.369 17.728 163.807 18.16C163.727 18.224 163.63 18.224 163.566 18.24H163.55Z" fill="#050504"/>
<path d="M152.424 18.3839C152.761 18.7199 153.211 18.8319 153.596 19.0719C156.133 20.7039 157.674 22.9759 158.107 25.9679C158.509 28.6879 157.834 31.1519 156.165 33.3279C155.619 34.0479 154.961 34.7039 154.463 35.4719C154.318 35.6799 154.318 36.0159 153.997 36.0959C154.062 35.8079 154.126 35.5039 154.174 35.2159C154.254 34.7999 154.045 34.4799 153.676 34.3999C153.323 34.3359 153.018 34.5279 152.922 34.9279C152.536 36.6239 152.183 38.3359 151.814 40.0319C151.814 40.0799 151.814 40.1119 151.798 40.1599C151.637 40.9119 151.621 40.8959 150.867 40.9279C150.497 40.9439 150.417 40.7839 150.353 40.4799C149.984 38.6879 149.598 36.9119 149.213 35.1199C149.149 34.8159 149.068 34.5279 148.731 34.4159C148.25 34.2399 147.8 34.6719 147.913 35.2159C148.282 36.9279 148.651 38.6559 149.02 40.3679C149.052 40.5279 149.085 40.7039 149.133 40.9119C148.603 40.9119 148.089 40.9119 147.575 40.9119C147.415 40.9119 147.351 40.8639 147.335 40.6879C147.11 37.7759 145.858 35.3279 144.011 33.0879C141.796 30.3999 141.282 27.3119 142.566 24.0799C143.851 20.8479 146.323 18.9439 149.775 18.3359C150.658 18.1919 151.541 18.1759 152.424 18.3679V18.3839ZM157.353 27.2479C157.353 26.2719 157.353 25.2959 157.353 24.3359C157.353 23.3919 156.903 22.9599 155.956 22.9599C154.945 22.9599 153.949 22.9599 152.938 22.9599C152.296 22.9599 151.718 23.1039 151.236 23.5359C151.091 23.6639 151.027 23.6479 150.883 23.5359C150.401 23.1039 149.823 22.9439 149.181 22.9599C148.169 22.9599 147.174 22.9599 146.163 22.9599C145.199 22.9599 144.766 23.4079 144.766 24.3359C144.766 26.2239 144.766 28.1119 144.766 29.9999C144.766 31.0719 145.167 31.4879 146.243 31.4879C148.153 31.4879 150.064 31.4879 151.99 31.4879C153.291 31.4879 154.607 31.4879 155.908 31.4879C156.951 31.4879 157.369 31.0719 157.369 30.0479C157.369 29.1199 157.369 28.1919 157.369 27.2639L157.353 27.2479Z" fill="#FBE67B"/>
<path d="M169.394 43.584C169.249 43.584 169.105 43.616 168.96 43.616C164.802 43.616 160.644 43.616 156.47 43.616C156.068 43.616 156.004 43.504 156.004 43.136C156.004 41.536 155.972 39.936 156.454 38.384C156.903 36.944 157.561 35.632 158.589 34.512C159.986 32.976 160.933 31.2 161.286 29.152C161.318 28.96 161.399 28.896 161.591 28.896C164.16 28.896 166.729 28.896 169.298 28.912C169.651 29.344 169.827 29.824 169.827 30.4C169.827 34.144 169.811 37.888 169.827 41.632C169.827 42.336 169.763 42.992 169.378 43.6L169.394 43.584ZM168.8 34C168.784 33.488 168.431 32.912 167.708 32.608C167.002 32.304 166.327 32.432 165.749 32.944C165.428 33.232 165.139 33.744 164.818 33.76C164.481 33.792 164.208 33.232 163.887 32.944C163.149 32.272 162.057 32.272 161.366 32.944C160.644 33.648 160.644 34.736 161.35 35.488C161.639 35.792 162.137 36.064 162.153 36.384C162.169 36.752 161.623 37.008 161.334 37.312C160.644 38.048 160.644 39.12 161.334 39.824C162.025 40.528 163.133 40.56 163.887 39.856C164.08 39.68 164.305 39.488 164.465 39.28C164.722 38.928 164.931 38.976 165.171 39.28C165.348 39.504 165.573 39.696 165.782 39.888C166.793 40.784 168.382 40.32 168.736 39.008C168.944 38.208 168.639 37.6 168.061 37.056C167.355 36.384 167.371 36.368 168.061 35.696C168.495 35.28 168.8 34.832 168.8 33.952V34Z" fill="#FC75A7"/>
<path d="M169.394 43.5841C169.779 42.9761 169.843 42.3201 169.843 41.6161C169.827 37.8721 169.827 34.1281 169.843 30.3841C169.843 29.8081 169.683 29.3281 169.314 28.8961C169.667 28.8961 170.036 28.8641 170.389 28.8961C171.224 28.9281 171.802 29.5361 171.802 30.3681C171.802 34.2881 171.802 38.2241 171.802 42.1441C171.802 42.9281 171.272 43.5041 170.502 43.5841C170.132 43.6321 169.763 43.6321 169.394 43.5841Z" fill="#F75691"/>
<path d="M152.761 43.584C151.059 43.584 149.358 43.6 147.656 43.616C147.656 43.616 147.624 43.616 147.608 43.616C147.078 43.344 147.495 42.864 147.367 42.496C147.303 42.288 147.415 42.208 147.64 42.208C149.341 42.208 151.043 42.208 152.745 42.224V43.6L152.761 43.584Z" fill="#7A9FAF"/>
<path d="M152.601 46.304C151.027 46.304 149.454 46.304 147.88 46.32C147.672 46.32 147.575 46.24 147.527 46.048C147.206 45.008 147.286 44.896 148.362 44.896C149.839 44.896 151.316 44.896 152.777 44.912C152.793 45.376 152.713 45.84 152.601 46.288V46.304Z" fill="#7A9FAF"/>
<path d="M152.761 43.5839V42.2079C153.323 42.2079 153.885 42.2079 154.447 42.1919C154.672 42.1919 154.736 42.2559 154.752 42.4799C154.8 43.6319 154.816 43.6319 153.66 43.6159C153.355 43.6159 153.066 43.6639 152.761 43.5839Z" fill="#61838E"/>
<path d="M152.601 46.304C152.713 45.856 152.793 45.392 152.777 44.928C153.323 44.928 153.869 44.928 154.415 44.928C154.495 44.928 154.64 44.928 154.656 44.976C154.8 45.376 154.656 45.76 154.559 46.144C154.511 46.384 154.318 46.352 154.158 46.336C153.644 46.336 153.13 46.336 152.617 46.32L152.601 46.304Z" fill="#61838E"/>
<path d="M150.963 48.6881C150.032 48.6561 149.213 48.3681 148.555 47.6801C148.555 47.6801 148.555 47.6481 148.555 47.6321C149.646 47.6321 150.722 47.6321 151.814 47.6321C151.766 47.9681 151.509 48.1441 151.284 48.3361C151.156 48.4481 150.979 48.5121 150.947 48.7041L150.963 48.6881Z" fill="#7A9FAF"/>
<path d="M150.963 48.688C150.995 48.496 151.172 48.432 151.3 48.32C151.525 48.128 151.782 47.952 151.83 47.616C152.408 47.616 152.97 47.616 153.548 47.616C153.275 48.208 151.974 48.752 150.979 48.672L150.963 48.688Z" fill="#61838E"/>
<path d="M148.555 47.6321C148.555 47.6321 148.555 47.6641 148.555 47.6801C148.539 47.6801 148.523 47.6641 148.507 47.6481C148.523 47.6481 148.539 47.6481 148.571 47.6481L148.555 47.6321Z" fill="#61838E"/>
<path d="M133.688 34.6241C134.427 34.6241 134.876 34.8801 135.261 35.2641C135.727 35.7441 135.727 35.7281 136.209 35.2641C136.835 34.6401 137.461 34.0001 138.103 33.3921C138.922 32.5921 140.014 32.5601 140.752 33.2961C141.491 34.0321 141.459 35.1361 140.672 35.9361C139.484 37.1201 138.296 38.3041 137.108 39.4881C136.257 40.3201 135.213 40.3361 134.362 39.4881C133.752 38.8801 133.126 38.2881 132.548 37.6641C132.018 37.1041 131.906 36.4321 132.211 35.7121C132.516 35.0081 133.094 34.6561 133.704 34.6241H133.688ZM139.981 34.5441C139.981 34.5441 139.949 34.4161 139.917 34.3361C139.741 33.9841 139.355 33.9681 139.018 34.2881C138.103 35.2001 137.188 36.1121 136.273 37.0081C135.871 37.4081 135.566 37.4081 135.165 37.0081C134.876 36.7361 134.603 36.4481 134.314 36.1601C134.009 35.8721 133.72 35.8401 133.495 36.0641C133.271 36.2881 133.287 36.5921 133.592 36.8961C134.138 37.4561 134.699 38.0161 135.261 38.5601C135.599 38.8961 135.839 38.8961 136.176 38.5601C137.365 37.3761 138.553 36.1921 139.741 35.0081C139.869 34.8801 139.965 34.7521 139.981 34.5281V34.5441Z" fill="#030302"/>
<path d="M157.353 27.248C157.353 28.176 157.353 29.104 157.353 30.032C157.353 31.056 156.935 31.472 155.892 31.472C154.591 31.472 153.275 31.472 151.974 31.472C150.064 31.472 148.153 31.472 146.227 31.472C145.167 31.472 144.766 31.056 144.75 29.984C144.75 28.096 144.75 26.208 144.75 24.32C144.75 23.376 145.199 22.944 146.147 22.944C147.158 22.944 148.153 22.944 149.165 22.944C149.807 22.944 150.385 23.088 150.867 23.52C150.995 23.632 151.075 23.648 151.22 23.52C151.701 23.088 152.279 22.928 152.922 22.944C153.933 22.944 154.929 22.944 155.94 22.944C156.903 22.944 157.337 23.392 157.337 24.32C157.337 25.296 157.337 26.272 157.337 27.232L157.353 27.248ZM146.05 27.168C146.05 28.048 146.05 28.944 146.05 29.824C146.05 30.08 146.082 30.192 146.387 30.192C147.624 30.176 148.86 30.192 150.08 30.192C150.305 30.192 150.401 30.16 150.401 29.888C150.401 28.384 150.401 26.88 150.401 25.392C150.401 24.64 149.984 24.24 149.213 24.24C148.266 24.24 147.319 24.24 146.371 24.24C146.114 24.24 146.034 24.304 146.034 24.56C146.05 25.424 146.034 26.304 146.034 27.168H146.05ZM156.052 27.248C156.052 26.368 156.052 25.472 156.052 24.592C156.052 24.32 156.004 24.224 155.699 24.24C154.768 24.256 153.837 24.24 152.906 24.24C152.087 24.24 151.701 24.64 151.685 25.456C151.685 26.928 151.685 28.4 151.685 29.872C151.685 30.144 151.766 30.208 152.023 30.208C153.259 30.208 154.495 30.208 155.715 30.208C155.988 30.208 156.052 30.128 156.052 29.872C156.036 29.008 156.052 28.128 156.052 27.264V27.248Z" fill="#050504"/>
<path d="M168.8 34.0001C168.8 34.8801 168.495 35.3281 168.061 35.7441C167.371 36.4161 167.355 36.4321 168.061 37.1041C168.623 37.6481 168.944 38.2561 168.736 39.0561C168.382 40.3681 166.809 40.8321 165.782 39.9361C165.573 39.7441 165.348 39.5521 165.171 39.3281C164.931 39.0081 164.722 38.9601 164.465 39.3281C164.305 39.5361 164.096 39.7281 163.887 39.9041C163.133 40.5921 162.025 40.5761 161.334 39.8721C160.644 39.1681 160.66 38.0961 161.334 37.3601C161.623 37.0401 162.169 36.7841 162.153 36.4321C162.153 36.1281 161.623 35.8401 161.35 35.5361C160.644 34.7841 160.66 33.6961 161.367 32.9921C162.057 32.3041 163.149 32.3041 163.887 32.9921C164.208 33.2801 164.481 33.8241 164.818 33.8081C165.155 33.7761 165.444 33.2641 165.749 32.9921C166.327 32.4641 167.002 32.3521 167.708 32.6561C168.415 32.9601 168.768 33.5361 168.8 34.0481V34.0001ZM162.699 33.7601C162.426 33.7601 162.266 33.8401 162.169 34.0481C162.073 34.2721 162.121 34.4641 162.282 34.6401C162.683 35.0401 163.1 35.4401 163.502 35.8561C163.935 36.2881 163.935 36.5921 163.502 37.0241C163.133 37.4081 162.747 37.7761 162.378 38.1441C162.089 38.4481 162.057 38.7361 162.282 38.9761C162.506 39.2001 162.827 39.1681 163.116 38.8801C163.518 38.4961 163.903 38.0961 164.305 37.6961C164.658 37.3601 165.011 37.3441 165.348 37.6961C165.717 38.0481 166.071 38.4161 166.44 38.7841C166.825 39.1521 167.114 39.2161 167.355 38.9921C167.612 38.7521 167.564 38.4481 167.178 38.0801C166.809 37.7121 166.44 37.3601 166.087 36.9921C165.717 36.6241 165.717 36.3041 166.087 35.9201C166.472 35.5201 166.873 35.1361 167.275 34.7361C167.564 34.4481 167.596 34.1281 167.339 33.9201C167.05 33.6801 166.793 33.7601 166.536 34.0161C166.151 34.4161 165.749 34.8161 165.348 35.2001C164.963 35.5681 164.642 35.5681 164.272 35.2001C163.871 34.8161 163.486 34.4161 163.084 34.0161C162.956 33.8881 162.827 33.7761 162.683 33.7921L162.699 33.7601Z" fill="#040303"/>
<path d="M139.981 34.544C139.981 34.768 139.869 34.896 139.741 35.024C138.553 36.208 137.365 37.392 136.176 38.576C135.839 38.912 135.599 38.912 135.261 38.576C134.699 38.032 134.138 37.472 133.592 36.912C133.287 36.608 133.271 36.32 133.495 36.08C133.72 35.856 134.009 35.888 134.314 36.176C134.603 36.448 134.876 36.752 135.165 37.024C135.582 37.424 135.871 37.424 136.273 37.024C137.188 36.112 138.103 35.2 139.018 34.304C139.355 33.984 139.741 34 139.917 34.352C139.949 34.432 139.965 34.512 139.981 34.56V34.544Z" fill="#789CAC"/>
<path d="M146.05 27.1681C146.05 26.3041 146.05 25.4241 146.05 24.5601C146.05 24.2881 146.131 24.2241 146.387 24.2401C147.335 24.2401 148.282 24.2401 149.229 24.2401C150 24.2401 150.401 24.6401 150.417 25.3921C150.417 26.8961 150.417 28.4001 150.417 29.8881C150.417 30.1441 150.321 30.1921 150.096 30.1921C148.86 30.1921 147.624 30.1921 146.403 30.1921C146.098 30.1921 146.066 30.0801 146.066 29.8241C146.066 28.9441 146.066 28.0481 146.066 27.1681H146.05Z" fill="#FEF4C5"/>
<path d="M156.052 27.2481C156.052 28.1121 156.052 28.9921 156.052 29.8561C156.052 30.1121 155.988 30.1921 155.715 30.1921C154.479 30.1921 153.243 30.1921 152.023 30.1921C151.766 30.1921 151.685 30.1281 151.685 29.8561C151.685 28.3841 151.685 26.9121 151.685 25.4401C151.685 24.6241 152.087 24.2401 152.906 24.2241C153.837 24.2241 154.768 24.2241 155.699 24.2241C155.988 24.2241 156.052 24.3201 156.052 24.5761C156.052 25.4561 156.052 26.3521 156.052 27.2321V27.2481Z" fill="#FEF8E1"/>
<path d="M162.699 33.76C162.844 33.76 162.972 33.872 163.1 33.984C163.502 34.384 163.887 34.768 164.288 35.168C164.658 35.536 164.995 35.536 165.364 35.168C165.766 34.784 166.151 34.384 166.552 33.984C166.793 33.744 167.066 33.664 167.355 33.888C167.612 34.096 167.58 34.416 167.291 34.704C166.905 35.104 166.504 35.488 166.103 35.888C165.733 36.272 165.733 36.592 166.103 36.96C166.456 37.328 166.825 37.68 167.194 38.048C167.564 38.416 167.628 38.72 167.371 38.96C167.13 39.2 166.825 39.136 166.456 38.752C166.087 38.384 165.733 38.016 165.364 37.664C165.011 37.328 164.674 37.328 164.321 37.664C163.919 38.048 163.534 38.448 163.133 38.848C162.844 39.136 162.522 39.168 162.298 38.944C162.073 38.72 162.105 38.416 162.394 38.112C162.763 37.728 163.149 37.36 163.518 36.992C163.951 36.544 163.951 36.256 163.518 35.824C163.116 35.424 162.699 35.024 162.298 34.608C162.121 34.432 162.089 34.24 162.185 34.016C162.266 33.808 162.442 33.728 162.715 33.728L162.699 33.76Z" fill="#E9F0F1"/>
</g>
<g filter="url(#filter4_d_2394_3020)">
<path d="M19.0703 25.3955C19.0703 25.2178 19.043 25.0583 18.9883 24.917C18.9382 24.7712 18.8424 24.639 18.7012 24.5205C18.5599 24.3975 18.3617 24.2767 18.1064 24.1582C17.8512 24.0397 17.5208 23.9167 17.1152 23.7891C16.6641 23.6432 16.2357 23.4792 15.8301 23.2969C15.429 23.1146 15.0736 22.9027 14.7637 22.6611C14.4583 22.415 14.2168 22.1302 14.0391 21.8066C13.8659 21.4831 13.7793 21.1071 13.7793 20.6787C13.7793 20.264 13.8704 19.888 14.0527 19.5508C14.235 19.209 14.4902 18.9173 14.8184 18.6758C15.1465 18.4297 15.5339 18.2406 15.9805 18.1084C16.4316 17.9762 16.9261 17.9102 17.4639 17.9102C18.1976 17.9102 18.8379 18.0423 19.3848 18.3066C19.9316 18.571 20.3555 18.9333 20.6562 19.3936C20.9616 19.8538 21.1143 20.3802 21.1143 20.9727H19.0771C19.0771 20.681 19.0156 20.4258 18.8926 20.207C18.7741 19.9837 18.5918 19.8083 18.3457 19.6807C18.1042 19.5531 17.7988 19.4893 17.4297 19.4893C17.0742 19.4893 16.778 19.5439 16.541 19.6533C16.304 19.7581 16.1263 19.9017 16.0078 20.084C15.8893 20.2617 15.8301 20.4622 15.8301 20.6855C15.8301 20.8542 15.8711 21.0068 15.9531 21.1436C16.0397 21.2803 16.1673 21.4079 16.3359 21.5264C16.5046 21.6449 16.7119 21.7565 16.958 21.8613C17.2041 21.9661 17.4889 22.0687 17.8125 22.1689C18.3548 22.333 18.8311 22.5176 19.2412 22.7227C19.6559 22.9277 20.0023 23.1579 20.2803 23.4131C20.5583 23.6683 20.7679 23.9577 20.9092 24.2812C21.0505 24.6048 21.1211 24.9717 21.1211 25.3818C21.1211 25.8148 21.0368 26.2021 20.8682 26.5439C20.6995 26.8857 20.4557 27.1751 20.1367 27.4121C19.8177 27.6491 19.4372 27.8291 18.9951 27.9521C18.5531 28.0752 18.0586 28.1367 17.5117 28.1367C17.0195 28.1367 16.5342 28.0729 16.0557 27.9453C15.5771 27.8132 15.1419 27.6149 14.75 27.3506C14.3626 27.0863 14.0527 26.749 13.8203 26.3389C13.5879 25.9287 13.4717 25.4434 13.4717 24.8828H15.5293C15.5293 25.1927 15.5771 25.4548 15.6729 25.6689C15.7686 25.8831 15.903 26.0563 16.0762 26.1885C16.2539 26.3206 16.4635 26.4163 16.7051 26.4756C16.9512 26.5348 17.2201 26.5645 17.5117 26.5645C17.8672 26.5645 18.1589 26.5143 18.3867 26.4141C18.6191 26.3138 18.79 26.1748 18.8994 25.9971C19.0133 25.8193 19.0703 25.6188 19.0703 25.3955ZM30.6914 22.791V23.2627C30.6914 24.0192 30.5889 24.6982 30.3838 25.2998C30.1787 25.9014 29.8893 26.4141 29.5156 26.8379C29.1419 27.2572 28.6953 27.5785 28.1758 27.8018C27.6608 28.0251 27.0889 28.1367 26.46 28.1367C25.8356 28.1367 25.2637 28.0251 24.7441 27.8018C24.2292 27.5785 23.7826 27.2572 23.4043 26.8379C23.026 26.4141 22.7321 25.9014 22.5225 25.2998C22.3174 24.6982 22.2148 24.0192 22.2148 23.2627V22.791C22.2148 22.0299 22.3174 21.3509 22.5225 20.7539C22.7275 20.1523 23.0169 19.6396 23.3906 19.2158C23.7689 18.792 24.2155 18.4684 24.7305 18.2451C25.25 18.0218 25.8219 17.9102 26.4463 17.9102C27.0752 17.9102 27.6471 18.0218 28.1621 18.2451C28.6816 18.4684 29.1283 18.792 29.502 19.2158C29.8802 19.6396 30.1719 20.1523 30.377 20.7539C30.5866 21.3509 30.6914 22.0299 30.6914 22.791ZM28.6201 23.2627V22.7773C28.6201 22.2487 28.5723 21.7839 28.4766 21.3828C28.3809 20.9818 28.2396 20.6445 28.0527 20.3711C27.8659 20.0977 27.638 19.8926 27.3691 19.7559C27.1003 19.6146 26.7926 19.5439 26.4463 19.5439C26.0999 19.5439 25.7923 19.6146 25.5234 19.7559C25.2591 19.8926 25.0335 20.0977 24.8467 20.3711C24.6644 20.6445 24.5254 20.9818 24.4297 21.3828C24.334 21.7839 24.2861 22.2487 24.2861 22.7773V23.2627C24.2861 23.7868 24.334 24.2516 24.4297 24.6572C24.5254 25.0583 24.6667 25.3978 24.8535 25.6758C25.0404 25.9492 25.2682 26.1566 25.5371 26.2979C25.806 26.4391 26.1136 26.5098 26.46 26.5098C26.8063 26.5098 27.1139 26.4391 27.3828 26.2979C27.6517 26.1566 27.8773 25.9492 28.0596 25.6758C28.2419 25.3978 28.3809 25.0583 28.4766 24.6572C28.5723 24.2516 28.6201 23.7868 28.6201 23.2627ZM37.9375 24.6982H39.9814C39.9404 25.3682 39.7559 25.9629 39.4277 26.4824C39.1042 27.002 38.6507 27.4076 38.0674 27.6992C37.4886 27.9909 36.7913 28.1367 35.9756 28.1367C35.3376 28.1367 34.7656 28.0273 34.2598 27.8086C33.7539 27.5853 33.321 27.2663 32.9609 26.8516C32.6055 26.4368 32.3343 25.9355 32.1475 25.3477C31.9606 24.7598 31.8672 24.1012 31.8672 23.3721V22.6816C31.8672 21.9525 31.9629 21.2939 32.1543 20.7061C32.3503 20.1136 32.6283 19.61 32.9883 19.1953C33.3529 18.7806 33.7881 18.4616 34.2939 18.2383C34.7998 18.015 35.3649 17.9033 35.9893 17.9033C36.8187 17.9033 37.5182 18.0537 38.0879 18.3545C38.6621 18.6553 39.1064 19.07 39.4209 19.5986C39.7399 20.1273 39.9313 20.7288 39.9951 21.4033H37.9443C37.9215 21.0023 37.8418 20.6628 37.7051 20.3848C37.5684 20.1022 37.361 19.8903 37.083 19.749C36.8096 19.6032 36.445 19.5303 35.9893 19.5303C35.6475 19.5303 35.349 19.5941 35.0938 19.7217C34.8385 19.8493 34.6243 20.043 34.4512 20.3027C34.278 20.5625 34.1481 20.8906 34.0615 21.2871C33.9795 21.679 33.9385 22.1393 33.9385 22.668V23.3721C33.9385 23.887 33.9772 24.3405 34.0547 24.7324C34.1322 25.1198 34.2507 25.4479 34.4102 25.7168C34.5742 25.9811 34.7839 26.1816 35.0391 26.3184C35.2988 26.4505 35.611 26.5166 35.9756 26.5166C36.404 26.5166 36.7572 26.4482 37.0352 26.3115C37.3132 26.1748 37.5251 25.972 37.6709 25.7031C37.8213 25.4342 37.9102 25.0993 37.9375 24.6982ZM47.0977 24.6982H49.1416C49.1006 25.3682 48.916 25.9629 48.5879 26.4824C48.2643 27.002 47.8109 27.4076 47.2275 27.6992C46.6488 27.9909 45.9515 28.1367 45.1357 28.1367C44.4977 28.1367 43.9258 28.0273 43.4199 27.8086C42.9141 27.5853 42.4811 27.2663 42.1211 26.8516C41.7656 26.4368 41.4945 25.9355 41.3076 25.3477C41.1208 24.7598 41.0273 24.1012 41.0273 23.3721V22.6816C41.0273 21.9525 41.123 21.2939 41.3145 20.7061C41.5104 20.1136 41.7884 19.61 42.1484 19.1953C42.513 18.7806 42.9482 18.4616 43.4541 18.2383C43.96 18.015 44.5251 17.9033 45.1494 17.9033C45.9788 17.9033 46.6784 18.0537 47.248 18.3545C47.8223 18.6553 48.2666 19.07 48.5811 19.5986C48.9001 20.1273 49.0915 20.7288 49.1553 21.4033H47.1045C47.0817 21.0023 47.002 20.6628 46.8652 20.3848C46.7285 20.1022 46.5212 19.8903 46.2432 19.749C45.9697 19.6032 45.6051 19.5303 45.1494 19.5303C44.8076 19.5303 44.5091 19.5941 44.2539 19.7217C43.9987 19.8493 43.7845 20.043 43.6113 20.3027C43.4382 20.5625 43.3083 20.8906 43.2217 21.2871C43.1396 21.679 43.0986 22.1393 43.0986 22.668V23.3721C43.0986 23.887 43.1374 24.3405 43.2148 24.7324C43.2923 25.1198 43.4108 25.4479 43.5703 25.7168C43.7344 25.9811 43.944 26.1816 44.1992 26.3184C44.459 26.4505 44.7712 26.5166 45.1357 26.5166C45.5641 26.5166 45.9173 26.4482 46.1953 26.3115C46.4733 26.1748 46.6852 25.972 46.8311 25.7031C46.9814 25.4342 47.0703 25.0993 47.0977 24.6982ZM57.167 26.4004V28H51.8691V26.4004H57.167ZM52.5391 18.0469V28H50.4883V18.0469H52.5391ZM56.4766 22.1006V23.6592H51.8691V22.1006H56.4766ZM57.1602 18.0469V19.6533H51.8691V18.0469H57.1602ZM58.3633 18.0469H62.0752C62.8363 18.0469 63.4902 18.1608 64.0371 18.3887C64.5885 18.6165 65.0124 18.9538 65.3086 19.4004C65.6048 19.847 65.7529 20.3962 65.7529 21.0479C65.7529 21.5811 65.6618 22.0391 65.4795 22.4219C65.3018 22.8001 65.0488 23.1169 64.7207 23.3721C64.3971 23.6227 64.0166 23.8232 63.5791 23.9736L62.9297 24.3154H59.7031L59.6895 22.7158H62.0889C62.4489 22.7158 62.7474 22.652 62.9844 22.5244C63.2214 22.3968 63.3991 22.2191 63.5176 21.9912C63.6406 21.7633 63.7021 21.499 63.7021 21.1982C63.7021 20.8792 63.6429 20.6035 63.5244 20.3711C63.4059 20.1387 63.2259 19.9609 62.9844 19.8379C62.7428 19.7148 62.4398 19.6533 62.0752 19.6533H60.4141V28H58.3633V18.0469ZM63.9277 28L61.6582 23.5635L63.8252 23.5498L66.1221 27.9043V28H63.9277ZM76.2256 26.5234L78.9189 28.6562L77.627 29.7773L74.9746 27.6445L76.2256 26.5234ZM78.9873 22.791V23.2627C78.9873 24.0192 78.8848 24.6982 78.6797 25.2998C78.4792 25.9014 78.1898 26.4141 77.8115 26.8379C77.4333 27.2572 76.9867 27.5785 76.4717 27.8018C75.9567 28.0251 75.3848 28.1367 74.7559 28.1367C74.1315 28.1367 73.5596 28.0251 73.04 27.8018C72.5205 27.5785 72.0716 27.2572 71.6934 26.8379C71.3151 26.4141 71.0212 25.9014 70.8115 25.2998C70.6064 24.6982 70.5039 24.0192 70.5039 23.2627V22.791C70.5039 22.0299 70.6064 21.3509 70.8115 20.7539C71.0212 20.1523 71.3128 19.6396 71.6865 19.2158C72.0602 18.792 72.5068 18.4684 73.0264 18.2451C73.5459 18.0218 74.1178 17.9102 74.7422 17.9102C75.3711 17.9102 75.943 18.0218 76.458 18.2451C76.9775 18.4684 77.4264 18.792 77.8047 19.2158C78.1829 19.6396 78.4746 20.1523 78.6797 20.7539C78.8848 21.3509 78.9873 22.0299 78.9873 22.791ZM76.916 23.2627V22.7773C76.916 22.2487 76.8659 21.7839 76.7656 21.3828C76.6699 20.9818 76.5286 20.6445 76.3418 20.3711C76.1595 20.0977 75.9339 19.8926 75.665 19.7559C75.3962 19.6146 75.0885 19.5439 74.7422 19.5439C74.3958 19.5439 74.0882 19.6146 73.8193 19.7559C73.5505 19.8926 73.3249 20.0977 73.1426 20.3711C72.9603 20.6445 72.8213 20.9818 72.7256 21.3828C72.6299 21.7839 72.582 22.2487 72.582 22.7773V23.2627C72.582 23.7868 72.6299 24.2516 72.7256 24.6572C72.8213 25.0583 72.9603 25.3978 73.1426 25.6758C73.3294 25.9492 73.5573 26.1566 73.8262 26.2979C74.0996 26.4391 74.4095 26.5098 74.7559 26.5098C75.1022 26.5098 75.4076 26.4391 75.6719 26.2979C75.9408 26.1566 76.1663 25.9492 76.3486 25.6758C76.5355 25.3978 76.6768 25.0583 76.7725 24.6572C76.8682 24.2516 76.916 23.7868 76.916 23.2627ZM85.9668 18.0469H88.0107V24.623C88.0107 25.3887 87.8467 26.0335 87.5186 26.5576C87.195 27.0817 86.7461 27.4759 86.1719 27.7402C85.6022 28.0046 84.946 28.1367 84.2031 28.1367C83.4603 28.1367 82.7995 28.0046 82.2207 27.7402C81.6465 27.4759 81.1953 27.0817 80.8672 26.5576C80.5436 26.0335 80.3818 25.3887 80.3818 24.623V18.0469H82.4326V24.623C82.4326 25.0697 82.5033 25.4342 82.6445 25.7168C82.7858 25.9993 82.9886 26.2067 83.2529 26.3389C83.5218 26.471 83.8385 26.5371 84.2031 26.5371C84.5768 26.5371 84.8936 26.471 85.1533 26.3389C85.4176 26.2067 85.6182 25.9993 85.7549 25.7168C85.8962 25.4342 85.9668 25.0697 85.9668 24.623V18.0469ZM91.8799 18.0469V28H89.8359V18.0469H91.8799ZM100.999 26.4004V28H93.9443V26.4004H100.999ZM100.896 19.1885L94.8535 28H93.4111V26.8242L99.502 18.0469H100.896V19.1885ZM100.192 18.0469V19.6533H93.418V18.0469H100.192Z" fill="black"/>
</g>
<g filter="url(#filter5_d_2394_3020)">
<path d="M17.1367 40.6543H14.8574V39.7344H17.1367C17.5781 39.7344 17.9355 39.6641 18.209 39.5234C18.4824 39.3828 18.6816 39.1875 18.8066 38.9375C18.9355 38.6875 19 38.4023 19 38.082C19 37.7891 18.9355 37.5137 18.8066 37.2559C18.6816 36.998 18.4824 36.791 18.209 36.6348C17.9355 36.4746 17.5781 36.3945 17.1367 36.3945H15.1211V44H13.9902V35.4688H17.1367C17.7812 35.4688 18.3262 35.5801 18.7715 35.8027C19.2168 36.0254 19.5547 36.334 19.7852 36.7285C20.0156 37.1191 20.1309 37.5664 20.1309 38.0703C20.1309 38.6172 20.0156 39.084 19.7852 39.4707C19.5547 39.8574 19.2168 40.1523 18.7715 40.3555C18.3262 40.5547 17.7812 40.6543 17.1367 40.6543ZM22.5742 35V44H21.4844V35H22.5742ZM28.0527 42.916V39.6523C28.0527 39.4023 28.002 39.1855 27.9004 39.002C27.8027 38.8145 27.6543 38.6699 27.4551 38.5684C27.2559 38.4668 27.0098 38.416 26.7168 38.416C26.4434 38.416 26.2031 38.4629 25.9961 38.5566C25.793 38.6504 25.6328 38.7734 25.5156 38.9258C25.4023 39.0781 25.3457 39.2422 25.3457 39.418H24.2617C24.2617 39.1914 24.3203 38.9668 24.4375 38.7441C24.5547 38.5215 24.7227 38.3203 24.9414 38.1406C25.1641 37.957 25.4297 37.8125 25.7383 37.707C26.0508 37.5977 26.3984 37.543 26.7812 37.543C27.2422 37.543 27.6484 37.6211 28 37.7773C28.3555 37.9336 28.6328 38.1699 28.832 38.4863C29.0352 38.7988 29.1367 39.1914 29.1367 39.6641V42.6172C29.1367 42.8281 29.1543 43.0527 29.1895 43.291C29.2285 43.5293 29.2852 43.7344 29.3594 43.9062V44H28.2285C28.1738 43.875 28.1309 43.709 28.0996 43.502C28.0684 43.291 28.0527 43.0957 28.0527 42.916ZM28.2402 40.1562L28.252 40.918H27.1562C26.8477 40.918 26.5723 40.9434 26.3301 40.9941C26.0879 41.041 25.8848 41.1133 25.7207 41.2109C25.5566 41.3086 25.4316 41.4316 25.3457 41.5801C25.2598 41.7246 25.2168 41.8945 25.2168 42.0898C25.2168 42.2891 25.2617 42.4707 25.3516 42.6348C25.4414 42.7988 25.5762 42.9297 25.7559 43.0273C25.9395 43.1211 26.1641 43.168 26.4297 43.168C26.7617 43.168 27.0547 43.0977 27.3086 42.957C27.5625 42.8164 27.7637 42.6445 27.9121 42.4414C28.0645 42.2383 28.1465 42.041 28.1582 41.8496L28.6211 42.3711C28.5938 42.5352 28.5195 42.7168 28.3984 42.916C28.2773 43.1152 28.1152 43.3066 27.9121 43.4902C27.7129 43.6699 27.4746 43.8203 27.1973 43.9414C26.9238 44.0586 26.6152 44.1172 26.2715 44.1172C25.8418 44.1172 25.4648 44.0332 25.1406 43.8652C24.8203 43.6973 24.5703 43.4727 24.3906 43.1914C24.2148 42.9062 24.127 42.5879 24.127 42.2363C24.127 41.8965 24.1934 41.5977 24.3262 41.3398C24.459 41.0781 24.6504 40.8613 24.9004 40.6895C25.1504 40.5137 25.4512 40.3809 25.8027 40.291C26.1543 40.2012 26.5469 40.1562 26.9805 40.1562H28.2402ZM32.5293 43.3438L34.293 37.6602H35.4531L32.9102 44.9785C32.8516 45.1348 32.7734 45.3027 32.6758 45.4824C32.582 45.666 32.4609 45.8398 32.3125 46.0039C32.1641 46.168 31.9844 46.3008 31.7734 46.4023C31.5664 46.5078 31.3184 46.5605 31.0293 46.5605C30.9434 46.5605 30.834 46.5488 30.7012 46.5254C30.5684 46.502 30.4746 46.4824 30.4199 46.4668L30.4141 45.5879C30.4453 45.5918 30.4941 45.5957 30.5605 45.5996C30.6309 45.6074 30.6797 45.6113 30.707 45.6113C30.9531 45.6113 31.1621 45.5781 31.334 45.5117C31.5059 45.4492 31.6504 45.3418 31.7676 45.1895C31.8887 45.041 31.9922 44.8359 32.0781 44.5742L32.5293 43.3438ZM31.2344 37.6602L32.8809 42.582L33.1621 43.7246L32.3828 44.123L30.0508 37.6602H31.2344ZM40.7031 35.4688V44H39.5723V35.4688H40.7031ZM44.2773 39.3066V40.2324H40.457V39.3066H44.2773ZM44.8574 35.4688V36.3945H40.457V35.4688H44.8574ZM45.625 40.9004V40.7656C45.625 40.3086 45.6914 39.8848 45.8242 39.4941C45.957 39.0996 46.1484 38.7578 46.3984 38.4688C46.6484 38.1758 46.9512 37.9492 47.3066 37.7891C47.6621 37.625 48.0605 37.543 48.502 37.543C48.9473 37.543 49.3477 37.625 49.7031 37.7891C50.0625 37.9492 50.3672 38.1758 50.6172 38.4688C50.8711 38.7578 51.0645 39.0996 51.1973 39.4941C51.3301 39.8848 51.3965 40.3086 51.3965 40.7656V40.9004C51.3965 41.3574 51.3301 41.7812 51.1973 42.1719C51.0645 42.5625 50.8711 42.9043 50.6172 43.1973C50.3672 43.4863 50.0645 43.7129 49.709 43.877C49.3574 44.0371 48.959 44.1172 48.5137 44.1172C48.0684 44.1172 47.668 44.0371 47.3125 43.877C46.957 43.7129 46.6523 43.4863 46.3984 43.1973C46.1484 42.9043 45.957 42.5625 45.8242 42.1719C45.6914 41.7812 45.625 41.3574 45.625 40.9004ZM46.709 40.7656V40.9004C46.709 41.2168 46.7461 41.5156 46.8203 41.7969C46.8945 42.0742 47.0059 42.3203 47.1543 42.5352C47.3066 42.75 47.4961 42.9199 47.7227 43.0449C47.9492 43.166 48.2129 43.2266 48.5137 43.2266C48.8105 43.2266 49.0703 43.166 49.293 43.0449C49.5195 42.9199 49.707 42.75 49.8555 42.5352C50.0039 42.3203 50.1152 42.0742 50.1895 41.7969C50.2676 41.5156 50.3066 41.2168 50.3066 40.9004V40.7656C50.3066 40.4531 50.2676 40.1582 50.1895 39.8809C50.1152 39.5996 50.002 39.3516 49.8496 39.1367C49.7012 38.918 49.5137 38.7461 49.2871 38.6211C49.0645 38.4961 48.8027 38.4336 48.502 38.4336C48.2051 38.4336 47.9434 38.4961 47.7168 38.6211C47.4941 38.7461 47.3066 38.918 47.1543 39.1367C47.0059 39.3516 46.8945 39.5996 46.8203 39.8809C46.7461 40.1582 46.709 40.4531 46.709 40.7656ZM53.8398 38.6562V44H52.7559V37.6602H53.8105L53.8398 38.6562ZM55.8203 37.625L55.8145 38.6328C55.7246 38.6133 55.6387 38.6016 55.5566 38.5977C55.4785 38.5898 55.3887 38.5859 55.2871 38.5859C55.0371 38.5859 54.8164 38.625 54.625 38.7031C54.4336 38.7812 54.2715 38.8906 54.1387 39.0312C54.0059 39.1719 53.9004 39.3398 53.8223 39.5352C53.748 39.7266 53.6992 39.9375 53.6758 40.168L53.3711 40.3438C53.3711 39.9609 53.4082 39.6016 53.4824 39.2656C53.5605 38.9297 53.6797 38.6328 53.8398 38.375C54 38.1133 54.2031 37.9102 54.4492 37.7656C54.6992 37.6172 54.9961 37.543 55.3398 37.543C55.418 37.543 55.5078 37.5527 55.6094 37.5723C55.7109 37.5879 55.7812 37.6055 55.8203 37.625ZM59.9629 35.4688H62.7871C63.4277 35.4688 63.9688 35.5664 64.4102 35.7617C64.8555 35.957 65.1934 36.2461 65.4238 36.6289C65.6582 37.0078 65.7754 37.4746 65.7754 38.0293C65.7754 38.4199 65.6953 38.7773 65.5352 39.1016C65.3789 39.4219 65.1523 39.6953 64.8555 39.9219C64.5625 40.1445 64.2109 40.3105 63.8008 40.4199L63.4844 40.543H60.8301L60.8184 39.623H62.8223C63.2285 39.623 63.5664 39.5527 63.8359 39.4121C64.1055 39.2676 64.3086 39.0742 64.4453 38.832C64.582 38.5898 64.6504 38.3223 64.6504 38.0293C64.6504 37.7012 64.5859 37.4141 64.457 37.168C64.3281 36.9219 64.125 36.7324 63.8477 36.5996C63.5742 36.4629 63.2207 36.3945 62.7871 36.3945H61.0938V44H59.9629V35.4688ZM64.9492 44L62.875 40.1328L64.0527 40.127L66.1562 43.9297V44H64.9492ZM69.8242 44.1172C69.3828 44.1172 68.9824 44.043 68.623 43.8945C68.2676 43.7422 67.9609 43.5293 67.7031 43.2559C67.4492 42.9824 67.2539 42.6582 67.1172 42.2832C66.9805 41.9082 66.9121 41.498 66.9121 41.0527V40.8066C66.9121 40.291 66.9883 39.832 67.1406 39.4297C67.293 39.0234 67.5 38.6797 67.7617 38.3984C68.0234 38.1172 68.3203 37.9043 68.6523 37.7598C68.9844 37.6152 69.3281 37.543 69.6836 37.543C70.1367 37.543 70.5273 37.6211 70.8555 37.7773C71.1875 37.9336 71.459 38.1523 71.6699 38.4336C71.8809 38.7109 72.0371 39.0391 72.1387 39.418C72.2402 39.793 72.291 40.2031 72.291 40.6484V41.1348H67.5566V40.25H71.207V40.168C71.1914 39.8867 71.1328 39.6133 71.0312 39.3477C70.9336 39.082 70.7773 38.8633 70.5625 38.6914C70.3477 38.5195 70.0547 38.4336 69.6836 38.4336C69.4375 38.4336 69.2109 38.4863 69.0039 38.5918C68.7969 38.6934 68.6191 38.8457 68.4707 39.0488C68.3223 39.252 68.207 39.5 68.125 39.793C68.043 40.0859 68.002 40.4238 68.002 40.8066V41.0527C68.002 41.3535 68.043 41.6367 68.125 41.9023C68.2109 42.1641 68.334 42.3945 68.4941 42.5938C68.6582 42.793 68.8555 42.9492 69.0859 43.0625C69.3203 43.1758 69.5859 43.2324 69.8828 43.2324C70.2656 43.2324 70.5898 43.1543 70.8555 42.998C71.1211 42.8418 71.3535 42.6328 71.5527 42.3711L72.209 42.8926C72.0723 43.0996 71.8984 43.2969 71.6875 43.4844C71.4766 43.6719 71.2168 43.8242 70.9082 43.9414C70.6035 44.0586 70.2422 44.1172 69.8242 44.1172ZM75.1621 42.875L76.791 37.6602H77.5059L77.3652 38.6973L75.707 44H75.0098L75.1621 42.875ZM74.0664 37.6602L75.4551 42.9336L75.5547 44H74.8223L72.9824 37.6602H74.0664ZM79.0645 42.8926L80.3887 37.6602H81.4668L79.627 44H78.9004L79.0645 42.8926ZM77.6641 37.6602L79.2578 42.7871L79.4395 44H78.748L77.043 38.6855L76.9023 37.6602H77.6641ZM86.3184 42.916V39.6523C86.3184 39.4023 86.2676 39.1855 86.166 39.002C86.0684 38.8145 85.9199 38.6699 85.7207 38.5684C85.5215 38.4668 85.2754 38.416 84.9824 38.416C84.709 38.416 84.4688 38.4629 84.2617 38.5566C84.0586 38.6504 83.8984 38.7734 83.7812 38.9258C83.668 39.0781 83.6113 39.2422 83.6113 39.418H82.5273C82.5273 39.1914 82.5859 38.9668 82.7031 38.7441C82.8203 38.5215 82.9883 38.3203 83.207 38.1406C83.4297 37.957 83.6953 37.8125 84.0039 37.707C84.3164 37.5977 84.6641 37.543 85.0469 37.543C85.5078 37.543 85.9141 37.6211 86.2656 37.7773C86.6211 37.9336 86.8984 38.1699 87.0977 38.4863C87.3008 38.7988 87.4023 39.1914 87.4023 39.6641V42.6172C87.4023 42.8281 87.4199 43.0527 87.4551 43.291C87.4941 43.5293 87.5508 43.7344 87.625 43.9062V44H86.4941C86.4395 43.875 86.3965 43.709 86.3652 43.502C86.334 43.291 86.3184 43.0957 86.3184 42.916ZM86.5059 40.1562L86.5176 40.918H85.4219C85.1133 40.918 84.8379 40.9434 84.5957 40.9941C84.3535 41.041 84.1504 41.1133 83.9863 41.2109C83.8223 41.3086 83.6973 41.4316 83.6113 41.5801C83.5254 41.7246 83.4824 41.8945 83.4824 42.0898C83.4824 42.2891 83.5273 42.4707 83.6172 42.6348C83.707 42.7988 83.8418 42.9297 84.0215 43.0273C84.2051 43.1211 84.4297 43.168 84.6953 43.168C85.0273 43.168 85.3203 43.0977 85.5742 42.957C85.8281 42.8164 86.0293 42.6445 86.1777 42.4414C86.3301 42.2383 86.4121 42.041 86.4238 41.8496L86.8867 42.3711C86.8594 42.5352 86.7852 42.7168 86.6641 42.916C86.543 43.1152 86.3809 43.3066 86.1777 43.4902C85.9785 43.6699 85.7402 43.8203 85.4629 43.9414C85.1895 44.0586 84.8809 44.1172 84.5371 44.1172C84.1074 44.1172 83.7305 44.0332 83.4062 43.8652C83.0859 43.6973 82.8359 43.4727 82.6562 43.1914C82.4805 42.9062 82.3926 42.5879 82.3926 42.2363C82.3926 41.8965 82.459 41.5977 82.5918 41.3398C82.7246 41.0781 82.916 40.8613 83.166 40.6895C83.416 40.5137 83.7168 40.3809 84.0684 40.291C84.4199 40.2012 84.8125 40.1562 85.2461 40.1562H86.5059ZM90.1914 38.6562V44H89.1074V37.6602H90.1621L90.1914 38.6562ZM92.1719 37.625L92.166 38.6328C92.0762 38.6133 91.9902 38.6016 91.9082 38.5977C91.8301 38.5898 91.7402 38.5859 91.6387 38.5859C91.3887 38.5859 91.168 38.625 90.9766 38.7031C90.7852 38.7812 90.623 38.8906 90.4902 39.0312C90.3574 39.1719 90.252 39.3398 90.1738 39.5352C90.0996 39.7266 90.0508 39.9375 90.0273 40.168L89.7227 40.3438C89.7227 39.9609 89.7598 39.6016 89.834 39.2656C89.9121 38.9297 90.0312 38.6328 90.1914 38.375C90.3516 38.1133 90.5547 37.9102 90.8008 37.7656C91.0508 37.6172 91.3477 37.543 91.6914 37.543C91.7695 37.543 91.8594 37.5527 91.9609 37.5723C92.0625 37.5879 92.1328 37.6055 92.1719 37.625ZM97.0527 42.7695V35H98.1426V44H97.1465L97.0527 42.7695ZM92.7871 40.9004V40.7773C92.7871 40.293 92.8457 39.8535 92.9629 39.459C93.084 39.0605 93.2539 38.7188 93.4727 38.4336C93.6953 38.1484 93.959 37.9297 94.2637 37.7773C94.5723 37.6211 94.916 37.543 95.2949 37.543C95.6934 37.543 96.041 37.6133 96.3379 37.7539C96.6387 37.8906 96.8926 38.0918 97.0996 38.3574C97.3105 38.6191 97.4766 38.9355 97.5977 39.3066C97.7188 39.6777 97.8027 40.0977 97.8496 40.5664V41.1055C97.8066 41.5703 97.7227 41.9883 97.5977 42.3594C97.4766 42.7305 97.3105 43.0469 97.0996 43.3086C96.8926 43.5703 96.6387 43.7715 96.3379 43.9121C96.0371 44.0488 95.6855 44.1172 95.2832 44.1172C94.9121 44.1172 94.5723 44.0371 94.2637 43.877C93.959 43.7168 93.6953 43.4922 93.4727 43.2031C93.2539 42.9141 93.084 42.5742 92.9629 42.1836C92.8457 41.7891 92.7871 41.3613 92.7871 40.9004ZM93.877 40.7773V40.9004C93.877 41.2168 93.9082 41.5137 93.9707 41.791C94.0371 42.0684 94.1387 42.3125 94.2754 42.5234C94.4121 42.7344 94.5859 42.9004 94.7969 43.0215C95.0078 43.1387 95.2598 43.1973 95.5527 43.1973C95.9121 43.1973 96.207 43.1211 96.4375 42.9688C96.6719 42.8164 96.8594 42.6152 97 42.3652C97.1406 42.1152 97.25 41.8438 97.3281 41.5508V40.1387C97.2812 39.9238 97.2129 39.7168 97.123 39.5176C97.0371 39.3145 96.9238 39.1348 96.7832 38.9785C96.6465 38.8184 96.4766 38.6914 96.2734 38.5977C96.0742 38.5039 95.8379 38.457 95.5645 38.457C95.2676 38.457 95.0117 38.5195 94.7969 38.6445C94.5859 38.7656 94.4121 38.9336 94.2754 39.1484C94.1387 39.3594 94.0371 39.6055 93.9707 39.8867C93.9082 40.1641 93.877 40.4609 93.877 40.7773Z" fill="black"/>
</g>
<defs>
<filter id="filter1_d_2394_3020" x="0" y="0" width="187" height="64" filterUnits="userSpaceOnUse" color-interpolation-filters="sRGB">
<feFlood flood-opacity="0" result="BackgroundImageFix"/>
<feColorMatrix in="SourceAlpha" type="matrix" values="0 0 0 0 0 0 0 0 0 0 0 0 0 0 0 0 0 0 127 0" result="hardAlpha"/>
<feOffset dy="2"/>
<feGaussianBlur stdDeviation="1"/>
<feComposite in2="hardAlpha" operator="out"/>
<feColorMatrix type="matrix" values="0 0 0 0 0 0 0 0 0 0 0 0 0 0 0 0 0 0 0.25 0"/>
<feBlend mode="normal" in2="BackgroundImageFix" result="effect1_dropShadow_2394_3020"/>
<feBlend mode="normal" in="SourceGraphic" in2="effect1_dropShadow_2394_3020" result="shape"/>
</filter>
<filter id="filter2_d_2394_3020" x="100" y="0" width="87" height="64" filterUnits="userSpaceOnUse" color-interpolation-filters="sRGB">
<feFlood flood-opacity="0" result="BackgroundImageFix"/>
<feColorMatrix in="SourceAlpha" type="matrix" values="0 0 0 0 0 0 0 0 0 0 0 0 0 0 0 0 0 0 127 0" result="hardAlpha"/>
<feOffset dy="2"/>
<feGaussianBlur stdDeviation="1"/>
<feComposite in2="hardAlpha" operator="out"/>
<feColorMatrix type="matrix" values="0 0 0 0 0 0 0 0 0 0 0 0 0 0 0 0 0 0 0.25 0"/>
<feBlend mode="normal" in2="BackgroundImageFix" result="effect1_dropShadow_2394_3020"/>
<feBlend mode="normal" in="SourceGraphic" in2="effect1_dropShadow_2394_3020" result="shape"/>
</filter>
<filter id="filter3_d_2394_3020" x="100" y="0" width="87" height="64" filterUnits="userSpaceOnUse" color-interpolation-filters="sRGB">
<feFlood flood-opacity="0" result="BackgroundImageFix"/>
<feColorMatrix in="SourceAlpha" type="matrix" values="0 0 0 0 0 0 0 0 0 0 0 0 0 0 0 0 0 0 127 0" result="hardAlpha"/>
<feOffset dy="2"/>
<feGaussianBlur stdDeviation="1"/>
<feComposite in2="hardAlpha" operator="out"/>
<feColorMatrix type="matrix" values="0 0 0 0 0 0 0 0 0 0 0 0 0 0 0 0 0 0 0.25 0"/>
<feBlend mode="normal" in2="BackgroundImageFix" result="effect1_dropShadow_2394_3020"/>
<feBlend mode="normal" in="SourceGraphic" in2="effect1_dropShadow_2394_3020" result="shape"/>
</filter>
<filter id="filter4_d_2394_3020" x="9.47168" y="17.9033" width="95.5273" height="19.874" filterUnits="userSpaceOnUse" color-interpolation-filters="sRGB">
<feFlood flood-opacity="0" result="BackgroundImageFix"/>
<feColorMatrix in="SourceAlpha" type="matrix" values="0 0 0 0 0 0 0 0 0 0 0 0 0 0 0 0 0 0 127 0" result="hardAlpha"/>
<feOffset dy="4"/>
<feGaussianBlur stdDeviation="2"/>
<feComposite in2="hardAlpha" operator="out"/>
<feColorMatrix type="matrix" values="0 0 0 0 0 0 0 0 0 0 0 0 0 0 0 0 0 0 0.25 0"/>
<feBlend mode="normal" in2="BackgroundImageFix" result="effect1_dropShadow_2394_3020"/>
<feBlend mode="normal" in="SourceGraphic" in2="effect1_dropShadow_2394_3020" result="shape"/>
</filter>
<filter id="filter5_d_2394_3020" x="9.99023" y="35" width="92.1523" height="19.5605" filterUnits="userSpaceOnUse" color-interpolation-filters="sRGB">
<feFlood flood-opacity="0" result="BackgroundImageFix"/>
<feColorMatrix in="SourceAlpha" type="matrix" values="0 0 0 0 0 0 0 0 0 0 0 0 0 0 0 0 0 0 127 0" result="hardAlpha"/>
<feOffset dy="4"/>
<feGaussianBlur stdDeviation="2"/>
<feComposite in2="hardAlpha" operator="out"/>
<feColorMatrix type="matrix" values="0 0 0 0 0 0 0 0 0 0 0 0 0 0 0 0 0 0 0.25 0"/>
<feBlend mode="normal" in2="BackgroundImageFix" result="effect1_dropShadow_2394_3020"/>
<feBlend mode="normal" in="SourceGraphic" in2="effect1_dropShadow_2394_3020" result="shape"/>
</filter>
<linearGradient id="paint0_linear_2394_3020" x1="143.5" y1="0" x2="143.5" y2="60" gradientUnits="userSpaceOnUse">
<stop stop-color="#ABFC3A"/>
<stop offset="1" stop-color="#669623"/>
</linearGradient>
<linearGradient id="paint1_linear_2394_3020" x1="143.5" y1="0" x2="143.5" y2="60" gradientUnits="userSpaceOnUse">
<stop stop-color="#ABFC3A"/>
<stop offset="1" stop-color="#669623"/>
</linearGradient>
<clipPath id="clip0_2394_3020">
<rect width="44.1026" height="40" fill="white" transform="translate(129 10)"/>
</clipPath>
</defs>
</svg>
