<svg width="193" height="64" viewBox="0 0 193 64" fill="none" xmlns="http://www.w3.org/2000/svg">
<g filter="url(#filter1_d_2394_3141)">
<rect x="2" width="189" height="60" rx="8" fill="#244184"/>
</g>
<g filter="url(#filter2_d_2394_3141)">
<path d="M127.887 0H183C187.418 0 191 3.58172 191 8V52C191 56.4183 187.418 60 183 60H105.279L127.887 0Z" fill="url(#paint0_linear_2394_3141)"/>
</g>
<g clip-path="url(#clip0_2394_3141)">
<path d="M168.528 19.3442C168.704 19.5522 168.976 19.6162 169.2 19.7442C173.984 22.2882 176.896 26.2242 177.792 31.5682C179.216 40.1122 173.28 48.3362 164.704 49.7762C157.632 50.9762 150.72 47.4242 147.584 40.9762C147.504 40.8322 147.472 40.6562 147.328 40.5602C147.184 39.9362 146.88 39.3762 146.704 38.7682C146.144 36.7842 145.872 34.7842 146.064 32.7202C146.192 31.3442 146.448 30.0002 146.912 28.6882C147.152 28.0162 147.472 27.3602 147.744 26.7042C148 26.2562 148.24 25.8082 148.496 25.3602C148.832 24.9122 149.168 24.4802 149.488 24.0322C149.872 23.5842 150.256 23.1362 150.64 22.7042C151.136 22.2882 151.616 21.8562 152.112 21.4562C152.496 21.1362 152.912 20.8482 153.312 20.5442C153.76 20.2882 154.208 20.0482 154.656 19.7922C155.44 19.4722 156.192 19.1202 156.992 18.8482C158.448 18.3522 159.952 18.1282 161.488 18.0482C162.112 18.0162 162.72 18.0482 163.344 18.1122C164.384 18.2082 165.408 18.4002 166.432 18.6722C167.136 18.8642 167.792 19.2002 168.512 19.3602L168.528 19.3442ZM161.984 47.9682C169.616 47.9682 175.936 41.8402 175.936 34.0162C175.936 26.2082 169.664 20.0802 161.984 20.0642C154.336 20.0642 148.032 26.2082 148.032 34.0162C148.032 41.8402 154.352 47.9522 161.984 47.9682Z" fill="#114378"/>
<path d="M145.584 39.6002C143.792 38.5442 142.304 37.1362 141.088 35.4562C138.864 32.4002 137.76 28.9762 138.048 25.2322C138.544 18.5282 141.904 13.7442 148.128 11.1842C155.088 8.32024 162.992 10.8322 167.232 17.0562C167.328 17.2002 167.408 17.3602 167.504 17.5202C167.008 17.5202 166.56 17.2642 166.08 17.1842C165.552 17.1042 165.024 16.9602 164.496 16.8482C162.88 14.9922 160.896 13.6642 158.592 12.8482C156.56 12.1282 154.48 11.9522 152.352 12.1762C150.832 12.3362 149.408 12.7522 148.032 13.3922C146.096 14.2882 144.512 15.6162 143.168 17.2482C141.392 19.4082 140.368 21.9042 140.128 24.6722C139.872 27.5842 140.416 30.3522 141.888 32.9122C142.672 34.2882 143.648 35.4882 144.864 36.5122C144.88 36.5282 144.912 36.5602 144.928 36.5762C145.008 36.9762 145.088 37.3922 145.168 37.7922C145.28 38.4002 145.552 38.9762 145.616 39.5842L145.584 39.6002Z" fill="#235A80"/>
<path d="M164.48 16.8481C165.008 16.9601 165.536 17.0881 166.064 17.1841C166.544 17.2641 166.992 17.5201 167.488 17.5201C167.52 17.5521 167.536 17.5841 167.568 17.6161C167.968 18.1601 168.256 18.7521 168.512 19.3601C167.792 19.2001 167.136 18.8641 166.432 18.6721C165.424 18.4001 164.4 18.2081 163.344 18.1121C162.72 18.0481 162.096 18.0161 161.488 18.0481C159.952 18.1281 158.448 18.3361 156.992 18.8481C156.192 19.1201 155.424 19.4721 154.656 19.7921C154.656 19.3121 154.656 18.8481 154.64 18.3681C154.64 18.3521 154.656 18.3201 154.672 18.3041C154.832 18.2401 154.992 18.1921 155.136 18.1281C157.264 17.2001 159.488 16.7361 161.808 16.7041C162.336 16.7041 162.864 16.7041 163.408 16.7041C163.76 16.8161 164.112 16.9121 164.496 16.8641L164.48 16.8481Z" fill="#18435E"/>
<path d="M145.584 39.6C145.52 38.976 145.248 38.416 145.136 37.808C145.056 37.408 144.976 36.992 144.896 36.592C144.88 36.576 144.848 36.544 144.832 36.528C144.864 36.192 144.784 35.872 144.736 35.536C144.816 34.832 144.736 34.144 144.736 33.44C144.768 31.568 145.152 29.776 145.776 28.032C145.936 27.584 146.112 27.152 146.272 26.72C146.304 26.72 146.32 26.704 146.352 26.688C146.832 26.688 147.296 26.688 147.776 26.704C147.504 27.36 147.184 28.016 146.944 28.688C146.48 29.984 146.224 31.328 146.096 32.72C145.904 34.784 146.176 36.784 146.736 38.768C146.912 39.376 147.216 39.936 147.36 40.56C146.752 40.304 146.144 40.016 145.632 39.6H145.584Z" fill="#18435E"/>
<path d="M167.568 17.5999C167.568 17.5999 167.52 17.5359 167.488 17.5039C167.52 17.5359 167.536 17.5679 167.568 17.5999Z" fill="#235A80"/>
<path d="M161.984 47.968C154.352 47.952 148.032 41.84 148.032 34.016C148.032 26.208 154.32 20.064 161.984 20.064C169.664 20.064 175.92 26.208 175.936 34.016C175.936 41.84 169.616 47.952 161.984 47.968ZM161.968 47.344C169.312 47.344 175.296 41.392 175.312 34.064C175.328 26.704 169.344 20.704 162 20.704C154.656 20.704 148.672 26.672 148.656 34C148.656 41.36 154.624 47.36 161.968 47.36V47.344Z" fill="#A1BFDF"/>
<path d="M153.328 20.5279C152.928 20.8319 152.512 21.1199 152.128 21.4399C151.632 21.8399 151.152 22.2719 150.656 22.6879C150.08 22.6879 149.504 22.6879 148.928 22.6719C150.192 21.2159 151.648 19.9999 153.312 19.0239C153.312 19.5199 153.312 20.0159 153.328 20.5119V20.5279Z" fill="#18435E"/>
<path d="M148.928 22.6719C149.504 22.6719 150.08 22.6719 150.656 22.6879C150.272 23.1359 149.888 23.5839 149.504 24.0159C148.976 24.0159 148.448 24.0159 147.92 23.9999C148.176 23.5199 148.608 23.1839 148.832 22.6879C148.864 22.6879 148.896 22.6879 148.928 22.6719Z" fill="#49ADE1"/>
<path d="M147.92 24C148.448 24 148.976 24 149.504 24.016C149.168 24.464 148.832 24.896 148.512 25.344C148.048 25.344 147.568 25.344 147.104 25.344C147.216 24.832 147.632 24.48 147.856 24.016C147.888 24.016 147.904 24.016 147.936 24H147.92Z" fill="#18435E"/>
<path d="M153.328 20.5282C153.328 20.0322 153.328 19.5362 153.312 19.0402H153.344C153.776 18.8162 154.176 18.5282 154.64 18.3682C154.64 18.8482 154.64 19.3122 154.656 19.7922C154.208 20.0482 153.76 20.2882 153.312 20.5442L153.328 20.5282Z" fill="#49ADE1"/>
<path d="M147.088 25.3442C147.552 25.3442 148.032 25.3442 148.496 25.3442C148.24 25.7922 148 26.2402 147.744 26.6882C147.264 26.6882 146.8 26.6882 146.32 26.6722C146.544 26.2402 146.752 25.7922 146.976 25.3602C147.008 25.3602 147.04 25.3602 147.072 25.3442H147.088Z" fill="#49ADE1"/>
<path d="M144.736 35.5362C144.8 35.8562 144.864 36.1922 144.832 36.5282C143.632 35.5042 142.656 34.2882 141.856 32.9282C140.384 30.3682 139.84 27.6002 140.096 24.6882C140.352 21.9202 141.36 19.4242 143.136 17.2642C144.48 15.6322 146.064 14.3042 148 13.4082C149.376 12.7682 150.8 12.3522 152.32 12.1922C154.448 11.9682 156.544 12.1442 158.56 12.8642C160.88 13.6802 162.848 14.9922 164.464 16.8642C164.096 16.9122 163.728 16.8162 163.376 16.7042C163.072 16.3202 162.72 16.0002 162.336 15.6962C159.984 13.7762 157.264 12.8482 154.256 12.7042C153.264 12.6562 152.272 12.7842 151.296 12.9762C148.704 13.4882 146.464 14.7202 144.592 16.5602C143.392 17.7442 142.432 19.1202 141.776 20.6722C140.72 23.1202 140.368 25.6642 140.832 28.2882C141.2 30.4002 142.032 32.3522 143.344 34.0642C143.744 34.5922 144.144 35.1682 144.72 35.5362H144.736Z" fill="#4098D4"/>
<path d="M144.832 36.5122C144.832 36.5122 144.88 36.5602 144.896 36.5762C144.88 36.5602 144.848 36.5282 144.832 36.5122Z" fill="#4098D4"/>
<path d="M144.736 35.536C144.16 35.152 143.776 34.592 143.36 34.064C142.048 32.352 141.232 30.416 140.848 28.288C140.384 25.664 140.736 23.12 141.792 20.672C142.464 19.104 143.408 17.744 144.608 16.56C146.48 14.72 148.72 13.488 151.312 12.976C152.288 12.784 153.28 12.656 154.272 12.704C157.28 12.848 160 13.776 162.352 15.696C162.736 16 163.088 16.32 163.392 16.704C162.864 16.704 162.336 16.704 161.792 16.704C159.472 16.72 157.248 17.2 155.12 18.128C154.976 18.192 154.816 18.24 154.656 18.304C154.656 18.16 154.64 18 154.624 17.856C154.72 17.776 154.816 17.696 154.912 17.616C155.28 17.216 155.424 16.752 155.232 16.24C155.024 15.696 154.624 15.376 154.048 15.36C153.504 15.328 153.088 15.568 152.816 16.048C152.464 16.688 152.64 17.296 153.328 17.856C153.328 18.256 153.328 18.64 153.328 19.04H153.296C151.632 20.016 150.176 21.232 148.912 22.688C148.88 22.688 148.848 22.688 148.816 22.704C148.608 22.688 148.656 22.528 148.656 22.4C148.656 22 148.656 21.584 148.656 21.184C148.752 21.104 148.848 21.024 148.944 20.944C149.312 20.544 149.456 20.08 149.264 19.568C149.056 19.024 148.656 18.704 148.08 18.688C147.536 18.656 147.104 18.896 146.848 19.376C146.496 20.016 146.672 20.608 147.36 21.184C147.36 21.856 147.36 22.528 147.344 23.2C147.344 23.6 147.472 23.888 147.856 24.048C147.648 24.512 147.232 24.864 147.104 25.376C147.072 25.376 147.04 25.376 147.008 25.392C146.64 25.392 146.256 25.392 145.888 25.392C145.824 25.296 145.76 25.216 145.68 25.136C145.168 24.544 144.256 24.528 143.728 25.088C143.2 25.632 143.232 26.512 143.824 27.008C144.448 27.552 145.184 27.44 145.856 26.704C146 26.704 146.144 26.72 146.288 26.736C146.128 27.168 145.952 27.6 145.792 28.048C145.184 29.808 144.784 31.584 144.752 33.456C144.752 34.16 144.832 34.848 144.752 35.552L144.736 35.536Z" fill="#26669D"/>
<path d="M154.656 17.8398C154.656 17.9838 154.672 18.1438 154.688 18.2878C154.688 18.3198 154.672 18.3358 154.656 18.3518C154.192 18.4958 153.792 18.7998 153.36 19.0238C153.36 18.6238 153.36 18.2398 153.36 17.8398C153.792 18.0158 154.224 18.0158 154.672 17.8398H154.656Z" fill="#80CCEE"/>
<path d="M146.256 26.7039C146.112 26.7039 145.968 26.6879 145.824 26.6719C146.016 26.2399 146.064 25.8079 145.856 25.3599C146.224 25.3599 146.608 25.3599 146.976 25.3599C146.752 25.7919 146.544 26.2399 146.32 26.6719C146.304 26.6719 146.272 26.6879 146.24 26.7039H146.256Z" fill="#7FCCF0"/>
<path d="M175.312 34.0641C175.296 41.3921 169.312 47.3601 161.984 47.3441C154.624 47.3441 148.656 41.3441 148.672 33.9841C148.672 26.6561 154.672 20.6881 162.016 20.7041C169.36 20.7041 175.344 26.7041 175.312 34.0641Z" fill="#2B73C1"/>
<path d="M147.84 24.032C147.472 23.872 147.312 23.584 147.328 23.184C147.344 22.512 147.328 21.84 147.344 21.168C147.776 21.344 148.208 21.344 148.656 21.168C148.656 21.568 148.656 21.984 148.656 22.384C148.656 22.512 148.608 22.672 148.816 22.688C148.576 23.168 148.144 23.52 147.904 24C147.872 24 147.856 24 147.824 24.016L147.84 24.032Z" fill="#7FCCF0"/>
<path d="M145.872 25.376C146.064 25.824 146.032 26.256 145.84 26.688C145.184 27.408 144.432 27.52 143.808 26.992C143.232 26.496 143.184 25.616 143.712 25.072C144.256 24.512 145.152 24.544 145.664 25.12C145.744 25.2 145.792 25.296 145.872 25.376Z" fill="#F6CF62"/>
<path d="M148.656 21.1678C148.224 21.3438 147.776 21.3438 147.344 21.1678C146.656 20.5918 146.48 19.9998 146.832 19.3598C147.088 18.8798 147.52 18.6398 148.064 18.6718C148.656 18.7038 149.056 19.0078 149.248 19.5518C149.44 20.0798 149.296 20.5278 148.928 20.9278C148.848 21.0238 148.736 21.0878 148.64 21.1678H148.656Z" fill="#F6CF62"/>
<path d="M154.656 17.8401C154.224 18.0001 153.776 18.0161 153.344 17.8401C152.656 17.2641 152.48 16.6721 152.832 16.0321C153.088 15.5521 153.52 15.3121 154.064 15.3441C154.656 15.3761 155.056 15.6801 155.248 16.2241C155.44 16.7521 155.296 17.2001 154.928 17.6001C154.848 17.6961 154.736 17.7601 154.64 17.8401H154.656Z" fill="#F6CF62"/>
<path d="M166.512 40.736C165.808 41.088 164.4 41.44 162.608 41.44C158.448 41.44 155.312 38.816 155.312 33.968C155.312 29.12 158.448 26.208 163.024 26.208C164.864 26.208 166.032 26.608 166.528 26.864L166.064 28.416C165.344 28.064 164.304 27.808 163.088 27.808C159.632 27.808 157.328 30.016 157.328 33.904C157.328 37.52 159.408 39.84 163.008 39.84C164.176 39.84 165.36 39.6 166.128 39.232L166.528 40.752L166.512 40.736Z" fill="white"/>
</g>
<g filter="url(#filter3_d_2394_3141)">
<path d="M17.4624 20.2559H15.271L15.2593 19.0488H17.0991C17.4233 19.0488 17.689 19.0078 17.896 18.9258C18.103 18.8398 18.2573 18.7168 18.3589 18.5566C18.4644 18.3926 18.5171 18.1934 18.5171 17.959C18.5171 17.6934 18.4663 17.4785 18.3647 17.3145C18.2671 17.1504 18.1128 17.0312 17.9019 16.957C17.6948 16.8828 17.4272 16.8457 17.0991 16.8457H15.8804V24H14.1226V15.4688H17.0991C17.5952 15.4688 18.0386 15.5156 18.4292 15.6094C18.8237 15.7031 19.1577 15.8457 19.4312 16.0371C19.7046 16.2285 19.9136 16.4707 20.0581 16.7637C20.2026 17.0527 20.2749 17.3965 20.2749 17.7949C20.2749 18.1465 20.1948 18.4707 20.0347 18.7676C19.8784 19.0645 19.6304 19.3066 19.2905 19.4941C18.9546 19.6816 18.5151 19.7852 17.9722 19.8047L17.4624 20.2559ZM17.3862 24H14.7905L15.4761 22.6289H17.3862C17.6948 22.6289 17.9468 22.5801 18.1421 22.4824C18.3374 22.3809 18.4819 22.2441 18.5757 22.0723C18.6694 21.9004 18.7163 21.7031 18.7163 21.4805C18.7163 21.2305 18.6733 21.0137 18.5874 20.8301C18.5054 20.6465 18.3726 20.5059 18.189 20.4082C18.0054 20.3066 17.7632 20.2559 17.4624 20.2559H15.769L15.7808 19.0488H17.8901L18.2944 19.5234C18.814 19.5156 19.2319 19.6074 19.5483 19.7988C19.8687 19.9863 20.1011 20.2305 20.2456 20.5312C20.394 20.832 20.4683 21.1543 20.4683 21.498C20.4683 22.0449 20.3491 22.5059 20.1108 22.8809C19.8726 23.252 19.5229 23.5312 19.062 23.7188C18.605 23.9062 18.0464 24 17.3862 24ZM26.4976 15.4688H28.2495V21.1055C28.2495 21.7617 28.1089 22.3145 27.8276 22.7637C27.5503 23.2129 27.1655 23.5508 26.6733 23.7773C26.1851 24.0039 25.6226 24.1172 24.9858 24.1172C24.3491 24.1172 23.7827 24.0039 23.2866 23.7773C22.7944 23.5508 22.4077 23.2129 22.1265 22.7637C21.8491 22.3145 21.7104 21.7617 21.7104 21.1055V15.4688H23.4683V21.1055C23.4683 21.4883 23.5288 21.8008 23.6499 22.043C23.771 22.2852 23.9448 22.4629 24.1714 22.5762C24.4019 22.6895 24.6733 22.7461 24.9858 22.7461C25.3062 22.7461 25.5776 22.6895 25.8003 22.5762C26.0269 22.4629 26.1987 22.2852 26.3159 22.043C26.437 21.8008 26.4976 21.4883 26.4976 21.1055V15.4688ZM30.8687 15.4688L32.6499 19.3594L34.4312 15.4688H36.3472L33.5405 20.8945V24H31.7593V20.8945L28.9468 15.4688H30.8687ZM40.9175 15.4688H42.4058L44.5972 21.7324L46.7886 15.4688H48.2769L45.1948 24H43.9995L40.9175 15.4688ZM40.1147 15.4688H41.5972L41.8667 21.5742V24H40.1147V15.4688ZM47.5972 15.4688H49.0854V24H47.3276V21.5742L47.5972 15.4688ZM57.6343 19.5352V19.9395C57.6343 20.5879 57.5464 21.1699 57.3706 21.6855C57.1948 22.2012 56.9468 22.6406 56.6265 23.0039C56.3062 23.3633 55.9233 23.6387 55.478 23.8301C55.0366 24.0215 54.5464 24.1172 54.0073 24.1172C53.4722 24.1172 52.9819 24.0215 52.5366 23.8301C52.0952 23.6387 51.7124 23.3633 51.3882 23.0039C51.064 22.6406 50.812 22.2012 50.6323 21.6855C50.4565 21.1699 50.3687 20.5879 50.3687 19.9395V19.5352C50.3687 18.8828 50.4565 18.3008 50.6323 17.7891C50.8081 17.2734 51.0562 16.834 51.3765 16.4707C51.7007 16.1074 52.0835 15.8301 52.5249 15.6387C52.9702 15.4473 53.4604 15.3516 53.9956 15.3516C54.5347 15.3516 55.0249 15.4473 55.4663 15.6387C55.9116 15.8301 56.2944 16.1074 56.6147 16.4707C56.939 16.834 57.189 17.2734 57.3647 17.7891C57.5444 18.3008 57.6343 18.8828 57.6343 19.5352ZM55.8589 19.9395V19.5234C55.8589 19.0703 55.8179 18.6719 55.7358 18.3281C55.6538 17.9844 55.5327 17.6953 55.3726 17.4609C55.2124 17.2266 55.0171 17.0508 54.7866 16.9336C54.5562 16.8125 54.2925 16.752 53.9956 16.752C53.6987 16.752 53.4351 16.8125 53.2046 16.9336C52.978 17.0508 52.7847 17.2266 52.6245 17.4609C52.4683 17.6953 52.3491 17.9844 52.2671 18.3281C52.1851 18.6719 52.144 19.0703 52.144 19.5234V19.9395C52.144 20.3887 52.1851 20.7871 52.2671 21.1348C52.3491 21.4785 52.4702 21.7695 52.6304 22.0078C52.7905 22.2422 52.9858 22.4199 53.2163 22.541C53.4468 22.6621 53.7104 22.7227 54.0073 22.7227C54.3042 22.7227 54.5679 22.6621 54.7983 22.541C55.0288 22.4199 55.2222 22.2422 55.3784 22.0078C55.5347 21.7695 55.6538 21.4785 55.7358 21.1348C55.8179 20.7871 55.8589 20.3887 55.8589 19.9395ZM58.8999 15.4688H62.0815C62.7339 15.4688 63.2944 15.5664 63.7632 15.7617C64.2358 15.957 64.5991 16.2461 64.853 16.6289C65.1069 17.0117 65.2339 17.4824 65.2339 18.041C65.2339 18.498 65.1558 18.8906 64.9995 19.2188C64.8472 19.543 64.6304 19.8145 64.3491 20.0332C64.0718 20.248 63.7456 20.4199 63.3706 20.5488L62.814 20.8418H60.0483L60.0366 19.4707H62.0933C62.4019 19.4707 62.6577 19.416 62.8608 19.3066C63.064 19.1973 63.2163 19.0449 63.3179 18.8496C63.4233 18.6543 63.4761 18.4277 63.4761 18.1699C63.4761 17.8965 63.4253 17.6602 63.3237 17.4609C63.2222 17.2617 63.0679 17.1094 62.8608 17.0039C62.6538 16.8984 62.394 16.8457 62.0815 16.8457H60.6577V24H58.8999V15.4688ZM63.6694 24L61.7241 20.1973L63.5815 20.1855L65.5503 23.918V24H63.6694ZM72.312 22.6289V24H67.771V22.6289H72.312ZM68.3452 15.4688V24H66.5874V15.4688H68.3452ZM71.7202 18.9434V20.2793H67.771V18.9434H71.7202ZM72.3062 15.4688V16.8457H67.771V15.4688H72.3062ZM81.271 21.1699H83.0229C82.9878 21.7441 82.8296 22.2539 82.5483 22.6992C82.271 23.1445 81.8823 23.4922 81.3823 23.7422C80.8862 23.9922 80.2886 24.1172 79.5894 24.1172C79.0425 24.1172 78.5522 24.0234 78.1187 23.8359C77.6851 23.6445 77.314 23.3711 77.0054 23.0156C76.7007 22.6602 76.4683 22.2305 76.3081 21.7266C76.1479 21.2227 76.0679 20.6582 76.0679 20.0332V19.4414C76.0679 18.8164 76.1499 18.252 76.314 17.748C76.4819 17.2402 76.7202 16.8086 77.0288 16.4531C77.3413 16.0977 77.7144 15.8242 78.1479 15.6328C78.5815 15.4414 79.0659 15.3457 79.6011 15.3457C80.312 15.3457 80.9116 15.4746 81.3999 15.7324C81.8921 15.9902 82.2729 16.3457 82.5425 16.7988C82.8159 17.252 82.98 17.7676 83.0347 18.3457H81.2769C81.2573 18.002 81.189 17.7109 81.0718 17.4727C80.9546 17.2305 80.7769 17.0488 80.5386 16.9277C80.3042 16.8027 79.9917 16.7402 79.6011 16.7402C79.3081 16.7402 79.0522 16.7949 78.8335 16.9043C78.6147 17.0137 78.4312 17.1797 78.2827 17.4023C78.1343 17.625 78.0229 17.9062 77.9487 18.2461C77.8784 18.582 77.8433 18.9766 77.8433 19.4297V20.0332C77.8433 20.4746 77.8765 20.8633 77.9429 21.1992C78.0093 21.5312 78.1108 21.8125 78.2476 22.043C78.3882 22.2695 78.5679 22.4414 78.7866 22.5586C79.0093 22.6719 79.2769 22.7285 79.5894 22.7285C79.9565 22.7285 80.2593 22.6699 80.4976 22.5527C80.7358 22.4355 80.9175 22.2617 81.0425 22.0312C81.1714 21.8008 81.2476 21.5137 81.271 21.1699ZM91.1851 19.5352V19.9395C91.1851 20.5879 91.0972 21.1699 90.9214 21.6855C90.7456 22.2012 90.4976 22.6406 90.1772 23.0039C89.8569 23.3633 89.4741 23.6387 89.0288 23.8301C88.5874 24.0215 88.0972 24.1172 87.5581 24.1172C87.0229 24.1172 86.5327 24.0215 86.0874 23.8301C85.646 23.6387 85.2632 23.3633 84.939 23.0039C84.6147 22.6406 84.3628 22.2012 84.1831 21.6855C84.0073 21.1699 83.9194 20.5879 83.9194 19.9395V19.5352C83.9194 18.8828 84.0073 18.3008 84.1831 17.7891C84.3589 17.2734 84.6069 16.834 84.9272 16.4707C85.2515 16.1074 85.6343 15.8301 86.0757 15.6387C86.521 15.4473 87.0112 15.3516 87.5464 15.3516C88.0854 15.3516 88.5757 15.4473 89.0171 15.6387C89.4624 15.8301 89.8452 16.1074 90.1655 16.4707C90.4897 16.834 90.7397 17.2734 90.9155 17.7891C91.0952 18.3008 91.1851 18.8828 91.1851 19.5352ZM89.4097 19.9395V19.5234C89.4097 19.0703 89.3687 18.6719 89.2866 18.3281C89.2046 17.9844 89.0835 17.6953 88.9233 17.4609C88.7632 17.2266 88.5679 17.0508 88.3374 16.9336C88.1069 16.8125 87.8433 16.752 87.5464 16.752C87.2495 16.752 86.9858 16.8125 86.7554 16.9336C86.5288 17.0508 86.3354 17.2266 86.1753 17.4609C86.019 17.6953 85.8999 17.9844 85.8179 18.3281C85.7358 18.6719 85.6948 19.0703 85.6948 19.5234V19.9395C85.6948 20.3887 85.7358 20.7871 85.8179 21.1348C85.8999 21.4785 86.021 21.7695 86.1812 22.0078C86.3413 22.2422 86.5366 22.4199 86.7671 22.541C86.9976 22.6621 87.2612 22.7227 87.5581 22.7227C87.855 22.7227 88.1187 22.6621 88.3491 22.541C88.5796 22.4199 88.7729 22.2422 88.9292 22.0078C89.0854 21.7695 89.2046 21.4785 89.2866 21.1348C89.3687 20.7871 89.4097 20.3887 89.4097 19.9395ZM94.3198 15.4688V24H92.5679V15.4688H94.3198ZM102.91 15.4688V24H101.152L97.7241 18.2812V24H95.9663V15.4688H97.7241L101.158 21.1934V15.4688H102.91Z" fill="white"/>
</g>
<g filter="url(#filter4_d_2394_3141)">
<path d="M20.6558 37.752V40.875C20.5503 41.0312 20.3823 41.207 20.1519 41.4023C19.9214 41.5938 19.603 41.7617 19.1968 41.9062C18.7944 42.0469 18.2749 42.1172 17.6382 42.1172C17.1187 42.1172 16.6401 42.0273 16.2026 41.8477C15.769 41.6641 15.3921 41.3984 15.0718 41.0508C14.7554 40.6992 14.5093 40.2734 14.3335 39.7734C14.1616 39.2695 14.0757 38.6992 14.0757 38.0625V37.4004C14.0757 36.7637 14.1499 36.1953 14.2983 35.6953C14.4507 35.1953 14.6733 34.7715 14.9663 34.4238C15.2593 34.0723 15.6187 33.8066 16.0444 33.627C16.4702 33.4434 16.9585 33.3516 17.5093 33.3516C18.1616 33.3516 18.7065 33.4648 19.144 33.6914C19.5854 33.9141 19.9292 34.2227 20.1753 34.6172C20.4253 35.0117 20.5854 35.4609 20.6558 35.9648H19.5249C19.4741 35.6562 19.3726 35.375 19.2202 35.1211C19.0718 34.8672 18.8589 34.6641 18.5815 34.5117C18.3042 34.3555 17.9468 34.2773 17.5093 34.2773C17.1147 34.2773 16.7729 34.3496 16.4839 34.4941C16.1948 34.6387 15.9565 34.8457 15.769 35.1152C15.5815 35.3848 15.4409 35.7109 15.3472 36.0938C15.2573 36.4766 15.2124 36.9082 15.2124 37.3887V38.0625C15.2124 38.5547 15.269 38.9941 15.3823 39.3809C15.4995 39.7676 15.6655 40.0977 15.8804 40.3711C16.0952 40.6406 16.3511 40.8457 16.6479 40.9863C16.9487 41.127 17.2808 41.1973 17.644 41.1973C18.0464 41.1973 18.3726 41.1641 18.6226 41.0977C18.8726 41.0273 19.0679 40.9453 19.2085 40.8516C19.3491 40.7539 19.4565 40.6621 19.5308 40.5762V38.666H17.5562V37.752H20.6558ZM22.0796 38.9004V38.7656C22.0796 38.3086 22.146 37.8848 22.2788 37.4941C22.4116 37.0996 22.603 36.7578 22.853 36.4688C23.103 36.1758 23.4058 35.9492 23.7612 35.7891C24.1167 35.625 24.5151 35.543 24.9565 35.543C25.4019 35.543 25.8022 35.625 26.1577 35.7891C26.5171 35.9492 26.8218 36.1758 27.0718 36.4688C27.3257 36.7578 27.519 37.0996 27.6519 37.4941C27.7847 37.8848 27.8511 38.3086 27.8511 38.7656V38.9004C27.8511 39.3574 27.7847 39.7812 27.6519 40.1719C27.519 40.5625 27.3257 40.9043 27.0718 41.1973C26.8218 41.4863 26.519 41.7129 26.1636 41.877C25.812 42.0371 25.4136 42.1172 24.9683 42.1172C24.5229 42.1172 24.1226 42.0371 23.7671 41.877C23.4116 41.7129 23.1069 41.4863 22.853 41.1973C22.603 40.9043 22.4116 40.5625 22.2788 40.1719C22.146 39.7812 22.0796 39.3574 22.0796 38.9004ZM23.1636 38.7656V38.9004C23.1636 39.2168 23.2007 39.5156 23.2749 39.7969C23.3491 40.0742 23.4604 40.3203 23.6089 40.5352C23.7612 40.75 23.9507 40.9199 24.1772 41.0449C24.4038 41.166 24.6675 41.2266 24.9683 41.2266C25.2651 41.2266 25.5249 41.166 25.7476 41.0449C25.9741 40.9199 26.1616 40.75 26.3101 40.5352C26.4585 40.3203 26.5698 40.0742 26.644 39.7969C26.7222 39.5156 26.7612 39.2168 26.7612 38.9004V38.7656C26.7612 38.4531 26.7222 38.1582 26.644 37.8809C26.5698 37.5996 26.4565 37.3516 26.3042 37.1367C26.1558 36.918 25.9683 36.7461 25.7417 36.6211C25.519 36.4961 25.2573 36.4336 24.9565 36.4336C24.6597 36.4336 24.3979 36.4961 24.1714 36.6211C23.9487 36.7461 23.7612 36.918 23.6089 37.1367C23.4604 37.3516 23.3491 37.5996 23.2749 37.8809C23.2007 38.1582 23.1636 38.4531 23.1636 38.7656ZM35.269 33.4688V42H34.1558V33.4688H35.269ZM38.0112 33.4688V34.3945H31.4194V33.4688H38.0112ZM38.2397 38.9004V38.7656C38.2397 38.3086 38.3062 37.8848 38.439 37.4941C38.5718 37.0996 38.7632 36.7578 39.0132 36.4688C39.2632 36.1758 39.5659 35.9492 39.9214 35.7891C40.2769 35.625 40.6753 35.543 41.1167 35.543C41.562 35.543 41.9624 35.625 42.3179 35.7891C42.6772 35.9492 42.9819 36.1758 43.2319 36.4688C43.4858 36.7578 43.6792 37.0996 43.812 37.4941C43.9448 37.8848 44.0112 38.3086 44.0112 38.7656V38.9004C44.0112 39.3574 43.9448 39.7812 43.812 40.1719C43.6792 40.5625 43.4858 40.9043 43.2319 41.1973C42.9819 41.4863 42.6792 41.7129 42.3237 41.877C41.9722 42.0371 41.5737 42.1172 41.1284 42.1172C40.6831 42.1172 40.2827 42.0371 39.9272 41.877C39.5718 41.7129 39.2671 41.4863 39.0132 41.1973C38.7632 40.9043 38.5718 40.5625 38.439 40.1719C38.3062 39.7812 38.2397 39.3574 38.2397 38.9004ZM39.3237 38.7656V38.9004C39.3237 39.2168 39.3608 39.5156 39.4351 39.7969C39.5093 40.0742 39.6206 40.3203 39.769 40.5352C39.9214 40.75 40.1108 40.9199 40.3374 41.0449C40.564 41.166 40.8276 41.2266 41.1284 41.2266C41.4253 41.2266 41.6851 41.166 41.9077 41.0449C42.1343 40.9199 42.3218 40.75 42.4702 40.5352C42.6187 40.3203 42.73 40.0742 42.8042 39.7969C42.8823 39.5156 42.9214 39.2168 42.9214 38.9004V38.7656C42.9214 38.4531 42.8823 38.1582 42.8042 37.8809C42.73 37.5996 42.6167 37.3516 42.4644 37.1367C42.3159 36.918 42.1284 36.7461 41.9019 36.6211C41.6792 36.4961 41.4175 36.4336 41.1167 36.4336C40.8198 36.4336 40.5581 36.4961 40.3315 36.6211C40.1089 36.7461 39.9214 36.918 39.769 37.1367C39.6206 37.3516 39.5093 37.5996 39.4351 37.8809C39.3608 38.1582 39.3237 38.4531 39.3237 38.7656ZM53.6616 39.2871H54.7866C54.728 39.8262 54.5737 40.3086 54.3237 40.7344C54.0737 41.1602 53.7202 41.498 53.2632 41.748C52.8062 41.9941 52.2358 42.1172 51.5522 42.1172C51.0522 42.1172 50.5972 42.0234 50.187 41.8359C49.7808 41.6484 49.4312 41.3828 49.1382 41.0391C48.8452 40.6914 48.6187 40.2754 48.4585 39.791C48.3022 39.3027 48.2241 38.7598 48.2241 38.1621V37.3125C48.2241 36.7148 48.3022 36.1738 48.4585 35.6895C48.6187 35.2012 48.8472 34.7832 49.144 34.4355C49.4448 34.0879 49.8062 33.8203 50.228 33.6328C50.6499 33.4453 51.1245 33.3516 51.6519 33.3516C52.2964 33.3516 52.8413 33.4727 53.2866 33.7148C53.7319 33.957 54.0776 34.293 54.3237 34.7227C54.5737 35.1484 54.728 35.6426 54.7866 36.2051H53.6616C53.6069 35.8066 53.5054 35.4648 53.3569 35.1797C53.2085 34.8906 52.9976 34.668 52.7241 34.5117C52.4507 34.3555 52.0933 34.2773 51.6519 34.2773C51.2729 34.2773 50.939 34.3496 50.6499 34.4941C50.3647 34.6387 50.1245 34.8438 49.9292 35.1094C49.7378 35.375 49.5933 35.6934 49.4956 36.0645C49.3979 36.4355 49.3491 36.8477 49.3491 37.3008V38.1621C49.3491 38.5801 49.3921 38.9727 49.478 39.3398C49.5679 39.707 49.7026 40.0293 49.8823 40.3066C50.062 40.584 50.2905 40.8027 50.5679 40.9629C50.8452 41.1191 51.1733 41.1973 51.5522 41.1973C52.0327 41.1973 52.4155 41.1211 52.7007 40.9688C52.9858 40.8164 53.2007 40.5977 53.3452 40.3125C53.4937 40.0273 53.5991 39.6855 53.6616 39.2871ZM55.8765 38.9004V38.7656C55.8765 38.3086 55.9429 37.8848 56.0757 37.4941C56.2085 37.0996 56.3999 36.7578 56.6499 36.4688C56.8999 36.1758 57.2026 35.9492 57.5581 35.7891C57.9136 35.625 58.312 35.543 58.7534 35.543C59.1987 35.543 59.5991 35.625 59.9546 35.7891C60.314 35.9492 60.6187 36.1758 60.8687 36.4688C61.1226 36.7578 61.3159 37.0996 61.4487 37.4941C61.5815 37.8848 61.6479 38.3086 61.6479 38.7656V38.9004C61.6479 39.3574 61.5815 39.7812 61.4487 40.1719C61.3159 40.5625 61.1226 40.9043 60.8687 41.1973C60.6187 41.4863 60.3159 41.7129 59.9604 41.877C59.6089 42.0371 59.2104 42.1172 58.7651 42.1172C58.3198 42.1172 57.9194 42.0371 57.564 41.877C57.2085 41.7129 56.9038 41.4863 56.6499 41.1973C56.3999 40.9043 56.2085 40.5625 56.0757 40.1719C55.9429 39.7812 55.8765 39.3574 55.8765 38.9004ZM56.9604 38.7656V38.9004C56.9604 39.2168 56.9976 39.5156 57.0718 39.7969C57.146 40.0742 57.2573 40.3203 57.4058 40.5352C57.5581 40.75 57.7476 40.9199 57.9741 41.0449C58.2007 41.166 58.4644 41.2266 58.7651 41.2266C59.062 41.2266 59.3218 41.166 59.5444 41.0449C59.771 40.9199 59.9585 40.75 60.1069 40.5352C60.2554 40.3203 60.3667 40.0742 60.4409 39.7969C60.519 39.5156 60.5581 39.2168 60.5581 38.9004V38.7656C60.5581 38.4531 60.519 38.1582 60.4409 37.8809C60.3667 37.5996 60.2534 37.3516 60.1011 37.1367C59.9526 36.918 59.7651 36.7461 59.5386 36.6211C59.3159 36.4961 59.0542 36.4336 58.7534 36.4336C58.4565 36.4336 58.1948 36.4961 57.9683 36.6211C57.7456 36.7461 57.5581 36.918 57.4058 37.1367C57.2573 37.3516 57.146 37.5996 57.0718 37.8809C56.9976 38.1582 56.9604 38.4531 56.9604 38.7656ZM64.1851 35.6602V42H63.0952V35.6602H64.1851ZM63.0132 33.9785C63.0132 33.8027 63.0659 33.6543 63.1714 33.5332C63.2808 33.4121 63.4409 33.3516 63.6519 33.3516C63.8589 33.3516 64.0171 33.4121 64.1265 33.5332C64.2397 33.6543 64.2964 33.8027 64.2964 33.9785C64.2964 34.1465 64.2397 34.291 64.1265 34.4121C64.0171 34.5293 63.8589 34.5879 63.6519 34.5879C63.4409 34.5879 63.2808 34.5293 63.1714 34.4121C63.0659 34.291 63.0132 34.1465 63.0132 33.9785ZM67.0093 37.0137V42H65.9253V35.6602H66.9507L67.0093 37.0137ZM66.7515 38.5898L66.3003 38.5723C66.3042 38.1387 66.3687 37.7383 66.4937 37.3711C66.6187 37 66.7944 36.6777 67.021 36.4043C67.2476 36.1309 67.5171 35.9199 67.8296 35.7715C68.146 35.6191 68.4956 35.543 68.8784 35.543C69.1909 35.543 69.4722 35.5859 69.7222 35.6719C69.9722 35.7539 70.1851 35.8867 70.3608 36.0703C70.5405 36.2539 70.6772 36.4922 70.771 36.7852C70.8647 37.0742 70.9116 37.4277 70.9116 37.8457V42H69.8218V37.834C69.8218 37.502 69.7729 37.2363 69.6753 37.0371C69.5776 36.834 69.4351 36.6875 69.2476 36.5977C69.0601 36.5039 68.8296 36.457 68.5562 36.457C68.2866 36.457 68.0405 36.5137 67.8179 36.627C67.5991 36.7402 67.4097 36.8965 67.2495 37.0957C67.0933 37.2949 66.9702 37.5234 66.8804 37.7812C66.7944 38.0352 66.7515 38.3047 66.7515 38.5898ZM80.2456 39.8438C80.2456 39.6445 80.2144 39.4688 80.1519 39.3164C80.0933 39.1602 79.9878 39.0195 79.8354 38.8945C79.687 38.7695 79.48 38.6504 79.2144 38.5371C78.9526 38.4238 78.6206 38.3086 78.2183 38.1914C77.7964 38.0664 77.4155 37.9277 77.0757 37.7754C76.7358 37.6191 76.4448 37.4414 76.2026 37.2422C75.9604 37.043 75.7749 36.8145 75.646 36.5566C75.5171 36.2988 75.4526 36.0039 75.4526 35.6719C75.4526 35.3398 75.521 35.0332 75.6577 34.752C75.7944 34.4707 75.9897 34.2266 76.2437 34.0195C76.5015 33.8086 76.8081 33.6445 77.1636 33.5273C77.519 33.4102 77.9155 33.3516 78.353 33.3516C78.9937 33.3516 79.5366 33.4746 79.9819 33.7207C80.4312 33.9629 80.7729 34.2812 81.0073 34.6758C81.2417 35.0664 81.3589 35.4844 81.3589 35.9297H80.2339C80.2339 35.6094 80.1655 35.3262 80.0288 35.0801C79.8921 34.8301 79.6851 34.6348 79.4077 34.4941C79.1304 34.3496 78.7788 34.2773 78.353 34.2773C77.9507 34.2773 77.6187 34.3379 77.3569 34.459C77.0952 34.5801 76.8999 34.7441 76.771 34.9512C76.646 35.1582 76.5835 35.3945 76.5835 35.6602C76.5835 35.8398 76.6206 36.0039 76.6948 36.1523C76.7729 36.2969 76.8921 36.4316 77.0522 36.5566C77.2163 36.6816 77.4233 36.7969 77.6733 36.9023C77.9272 37.0078 78.23 37.1094 78.5815 37.207C79.0659 37.3438 79.4839 37.4961 79.8354 37.6641C80.187 37.832 80.4761 38.0215 80.7026 38.2324C80.9331 38.4395 81.103 38.6758 81.2124 38.9414C81.3257 39.2031 81.3823 39.5 81.3823 39.832C81.3823 40.1797 81.312 40.4941 81.1714 40.7754C81.0308 41.0566 80.8296 41.2969 80.5679 41.4961C80.3062 41.6953 79.9917 41.8496 79.6245 41.959C79.2612 42.0645 78.855 42.1172 78.4058 42.1172C78.0112 42.1172 77.6226 42.0625 77.2397 41.9531C76.8608 41.8438 76.5151 41.6797 76.2026 41.4609C75.894 41.2422 75.646 40.9727 75.4585 40.6523C75.2749 40.3281 75.1831 39.9531 75.1831 39.5273H76.3081C76.3081 39.8203 76.3647 40.0723 76.478 40.2832C76.5913 40.4902 76.7456 40.6621 76.9409 40.7988C77.1401 40.9355 77.3647 41.0371 77.6147 41.1035C77.8687 41.166 78.1323 41.1973 78.4058 41.1973C78.8003 41.1973 79.1343 41.1426 79.4077 41.0332C79.6812 40.9238 79.8882 40.7676 80.0288 40.5645C80.1733 40.3613 80.2456 40.1211 80.2456 39.8438ZM83.7437 33V42H82.6597V33H83.7437ZM83.4858 38.5898L83.0347 38.5723C83.0386 38.1387 83.103 37.7383 83.228 37.3711C83.353 37 83.5288 36.6777 83.7554 36.4043C83.9819 36.1309 84.2515 35.9199 84.564 35.7715C84.8804 35.6191 85.23 35.543 85.6128 35.543C85.9253 35.543 86.2065 35.5859 86.4565 35.6719C86.7065 35.7539 86.9194 35.8867 87.0952 36.0703C87.2749 36.2539 87.4116 36.4922 87.5054 36.7852C87.5991 37.0742 87.646 37.4277 87.646 37.8457V42H86.5562V37.834C86.5562 37.502 86.5073 37.2363 86.4097 37.0371C86.312 36.834 86.1694 36.6875 85.9819 36.5977C85.7944 36.5039 85.564 36.457 85.2905 36.457C85.021 36.457 84.7749 36.5137 84.5522 36.627C84.3335 36.7402 84.144 36.8965 83.9839 37.0957C83.8276 37.2949 83.7046 37.5234 83.6147 37.7812C83.5288 38.0352 83.4858 38.3047 83.4858 38.5898ZM88.9819 38.9004V38.7656C88.9819 38.3086 89.0483 37.8848 89.1812 37.4941C89.314 37.0996 89.5054 36.7578 89.7554 36.4688C90.0054 36.1758 90.3081 35.9492 90.6636 35.7891C91.019 35.625 91.4175 35.543 91.8589 35.543C92.3042 35.543 92.7046 35.625 93.0601 35.7891C93.4194 35.9492 93.7241 36.1758 93.9741 36.4688C94.228 36.7578 94.4214 37.0996 94.5542 37.4941C94.687 37.8848 94.7534 38.3086 94.7534 38.7656V38.9004C94.7534 39.3574 94.687 39.7812 94.5542 40.1719C94.4214 40.5625 94.228 40.9043 93.9741 41.1973C93.7241 41.4863 93.4214 41.7129 93.0659 41.877C92.7144 42.0371 92.3159 42.1172 91.8706 42.1172C91.4253 42.1172 91.0249 42.0371 90.6694 41.877C90.314 41.7129 90.0093 41.4863 89.7554 41.1973C89.5054 40.9043 89.314 40.5625 89.1812 40.1719C89.0483 39.7812 88.9819 39.3574 88.9819 38.9004ZM90.0659 38.7656V38.9004C90.0659 39.2168 90.103 39.5156 90.1772 39.7969C90.2515 40.0742 90.3628 40.3203 90.5112 40.5352C90.6636 40.75 90.853 40.9199 91.0796 41.0449C91.3062 41.166 91.5698 41.2266 91.8706 41.2266C92.1675 41.2266 92.4272 41.166 92.6499 41.0449C92.8765 40.9199 93.064 40.75 93.2124 40.5352C93.3608 40.3203 93.4722 40.0742 93.5464 39.7969C93.6245 39.5156 93.6636 39.2168 93.6636 38.9004V38.7656C93.6636 38.4531 93.6245 38.1582 93.5464 37.8809C93.4722 37.5996 93.3589 37.3516 93.2065 37.1367C93.0581 36.918 92.8706 36.7461 92.644 36.6211C92.4214 36.4961 92.1597 36.4336 91.8589 36.4336C91.562 36.4336 91.3003 36.4961 91.0737 36.6211C90.8511 36.7461 90.6636 36.918 90.5112 37.1367C90.3628 37.3516 90.2515 37.5996 90.1772 37.8809C90.103 38.1582 90.0659 38.4531 90.0659 38.7656ZM97.1968 36.8789V44.4375H96.1069V35.6602H97.103L97.1968 36.8789ZM101.468 38.7773V38.9004C101.468 39.3613 101.414 39.7891 101.304 40.1836C101.195 40.5742 101.035 40.9141 100.824 41.2031C100.617 41.4922 100.361 41.7168 100.056 41.877C99.7515 42.0371 99.4019 42.1172 99.0073 42.1172C98.605 42.1172 98.2495 42.0508 97.9409 41.918C97.6323 41.7852 97.3706 41.5918 97.1558 41.3379C96.9409 41.084 96.769 40.7793 96.6401 40.4238C96.5151 40.0684 96.4292 39.668 96.3823 39.2227V38.5664C96.4292 38.0977 96.5171 37.6777 96.646 37.3066C96.7749 36.9355 96.9448 36.6191 97.1558 36.3574C97.3706 36.0918 97.6304 35.8906 97.9351 35.7539C98.2397 35.6133 98.5913 35.543 98.9897 35.543C99.3882 35.543 99.7417 35.6211 100.05 35.7773C100.359 35.9297 100.619 36.1484 100.83 36.4336C101.041 36.7188 101.199 37.0605 101.304 37.459C101.414 37.8535 101.468 38.293 101.468 38.7773ZM100.378 38.9004V38.7773C100.378 38.4609 100.345 38.1641 100.279 37.8867C100.212 37.6055 100.109 37.3594 99.9683 37.1484C99.8315 36.9336 99.6558 36.7656 99.4409 36.6445C99.2261 36.5195 98.9702 36.457 98.6733 36.457C98.3999 36.457 98.1616 36.5039 97.9585 36.5977C97.7593 36.6914 97.5894 36.8184 97.4487 36.9785C97.3081 37.1348 97.1929 37.3145 97.103 37.5176C97.0171 37.7168 96.9526 37.9238 96.9097 38.1387V39.6562C96.9878 39.9297 97.0972 40.1875 97.2378 40.4297C97.3784 40.668 97.5659 40.8613 97.8003 41.0098C98.0347 41.1543 98.3296 41.2266 98.6851 41.2266C98.978 41.2266 99.23 41.166 99.4409 41.0449C99.6558 40.9199 99.8315 40.75 99.9683 40.5352C100.109 40.3203 100.212 40.0742 100.279 39.7969C100.345 39.5156 100.378 39.2168 100.378 38.9004Z" fill="white"/>
</g>
<defs>
<filter id="filter1_d_2394_3141" x="0" y="0" width="193" height="64" filterUnits="userSpaceOnUse" color-interpolation-filters="sRGB">
<feFlood flood-opacity="0" result="BackgroundImageFix"/>
<feColorMatrix in="SourceAlpha" type="matrix" values="0 0 0 0 0 0 0 0 0 0 0 0 0 0 0 0 0 0 127 0" result="hardAlpha"/>
<feOffset dy="2"/>
<feGaussianBlur stdDeviation="1"/>
<feComposite in2="hardAlpha" operator="out"/>
<feColorMatrix type="matrix" values="0 0 0 0 0 0 0 0 0 0 0 0 0 0 0 0 0 0 0.25 0"/>
<feBlend mode="normal" in2="BackgroundImageFix" result="effect1_dropShadow_2394_3141"/>
<feBlend mode="normal" in="SourceGraphic" in2="effect1_dropShadow_2394_3141" result="shape"/>
</filter>
<filter id="filter2_d_2394_3141" x="103.279" y="0" width="89.7213" height="64" filterUnits="userSpaceOnUse" color-interpolation-filters="sRGB">
<feFlood flood-opacity="0" result="BackgroundImageFix"/>
<feColorMatrix in="SourceAlpha" type="matrix" values="0 0 0 0 0 0 0 0 0 0 0 0 0 0 0 0 0 0 127 0" result="hardAlpha"/>
<feOffset dy="2"/>
<feGaussianBlur stdDeviation="1"/>
<feComposite in2="hardAlpha" operator="out"/>
<feColorMatrix type="matrix" values="0 0 0 0 0 0 0 0 0 0 0 0 0 0 0 0 0 0 0.25 0"/>
<feBlend mode="normal" in2="BackgroundImageFix" result="effect1_dropShadow_2394_3141"/>
<feBlend mode="normal" in="SourceGraphic" in2="effect1_dropShadow_2394_3141" result="shape"/>
</filter>
<filter id="filter3_d_2394_3141" x="10.1226" y="15.3457" width="96.7871" height="16.7715" filterUnits="userSpaceOnUse" color-interpolation-filters="sRGB">
<feFlood flood-opacity="0" result="BackgroundImageFix"/>
<feColorMatrix in="SourceAlpha" type="matrix" values="0 0 0 0 0 0 0 0 0 0 0 0 0 0 0 0 0 0 127 0" result="hardAlpha"/>
<feOffset dy="4"/>
<feGaussianBlur stdDeviation="2"/>
<feComposite in2="hardAlpha" operator="out"/>
<feColorMatrix type="matrix" values="0 0 0 0 0 0 0 0 0 0 0 0 0 0 0 0 0 0 0.25 0"/>
<feBlend mode="normal" in2="BackgroundImageFix" result="effect1_dropShadow_2394_3141"/>
<feBlend mode="normal" in="SourceGraphic" in2="effect1_dropShadow_2394_3141" result="shape"/>
</filter>
<filter id="filter4_d_2394_3141" x="10.0757" y="33" width="95.3926" height="19.4375" filterUnits="userSpaceOnUse" color-interpolation-filters="sRGB">
<feFlood flood-opacity="0" result="BackgroundImageFix"/>
<feColorMatrix in="SourceAlpha" type="matrix" values="0 0 0 0 0 0 0 0 0 0 0 0 0 0 0 0 0 0 127 0" result="hardAlpha"/>
<feOffset dy="4"/>
<feGaussianBlur stdDeviation="2"/>
<feComposite in2="hardAlpha" operator="out"/>
<feColorMatrix type="matrix" values="0 0 0 0 0 0 0 0 0 0 0 0 0 0 0 0 0 0 0.25 0"/>
<feBlend mode="normal" in2="BackgroundImageFix" result="effect1_dropShadow_2394_3141"/>
<feBlend mode="normal" in="SourceGraphic" in2="effect1_dropShadow_2394_3141" result="shape"/>
</filter>
<linearGradient id="paint0_linear_2394_3141" x1="148.139" y1="0" x2="148.139" y2="60" gradientUnits="userSpaceOnUse">
<stop stop-color="#244184"/>
<stop offset="1" stop-color="#080F1E"/>
</linearGradient>
<clipPath id="clip0_2394_3141">
<rect width="40" height="40" fill="white" transform="translate(138 10)"/>
</clipPath>
</defs>
</svg>
